%TF.GenerationSoftware,KiCad,Pcbnew,7.0.1-3b83917a11~172~ubuntu22.04.1*%
%TF.CreationDate,2023-04-19T02:42:24+01:00*%
%TF.ProjectId,mxr_microamp,6d78725f-6d69-4637-926f-616d702e6b69,rev?*%
%TF.SameCoordinates,Original*%
%TF.FileFunction,Legend,Bot*%
%TF.FilePolarity,Positive*%
%FSLAX46Y46*%
G04 Gerber Fmt 4.6, Leading zero omitted, Abs format (unit mm)*
G04 Created by KiCad (PCBNEW 7.0.1-3b83917a11~172~ubuntu22.04.1) date 2023-04-19 02:42:24*
%MOMM*%
%LPD*%
G01*
G04 APERTURE LIST*
%ADD10C,0.200000*%
G04 APERTURE END LIST*
D10*
X152955714Y-97159619D02*
X153431904Y-97159619D01*
X153431904Y-97159619D02*
X153431904Y-96159619D01*
X152622380Y-97159619D02*
X152622380Y-96159619D01*
X152622380Y-96159619D02*
X152289047Y-96873904D01*
X152289047Y-96873904D02*
X151955714Y-96159619D01*
X151955714Y-96159619D02*
X151955714Y-97159619D01*
X151527142Y-96254857D02*
X151479523Y-96207238D01*
X151479523Y-96207238D02*
X151384285Y-96159619D01*
X151384285Y-96159619D02*
X151146190Y-96159619D01*
X151146190Y-96159619D02*
X151050952Y-96207238D01*
X151050952Y-96207238D02*
X151003333Y-96254857D01*
X151003333Y-96254857D02*
X150955714Y-96350095D01*
X150955714Y-96350095D02*
X150955714Y-96445333D01*
X150955714Y-96445333D02*
X151003333Y-96588190D01*
X151003333Y-96588190D02*
X151574761Y-97159619D01*
X151574761Y-97159619D02*
X150955714Y-97159619D01*
X150622380Y-96159619D02*
X149955714Y-96159619D01*
X149955714Y-96159619D02*
X150384285Y-97159619D01*
X149669999Y-96159619D02*
X149003333Y-96159619D01*
X149003333Y-96159619D02*
X149431904Y-97159619D01*
X148193809Y-96159619D02*
X148384285Y-96159619D01*
X148384285Y-96159619D02*
X148479523Y-96207238D01*
X148479523Y-96207238D02*
X148527142Y-96254857D01*
X148527142Y-96254857D02*
X148622380Y-96397714D01*
X148622380Y-96397714D02*
X148669999Y-96588190D01*
X148669999Y-96588190D02*
X148669999Y-96969142D01*
X148669999Y-96969142D02*
X148622380Y-97064380D01*
X148622380Y-97064380D02*
X148574761Y-97112000D01*
X148574761Y-97112000D02*
X148479523Y-97159619D01*
X148479523Y-97159619D02*
X148289047Y-97159619D01*
X148289047Y-97159619D02*
X148193809Y-97112000D01*
X148193809Y-97112000D02*
X148146190Y-97064380D01*
X148146190Y-97064380D02*
X148098571Y-96969142D01*
X148098571Y-96969142D02*
X148098571Y-96731047D01*
X148098571Y-96731047D02*
X148146190Y-96635809D01*
X148146190Y-96635809D02*
X148193809Y-96588190D01*
X148193809Y-96588190D02*
X148289047Y-96540571D01*
X148289047Y-96540571D02*
X148479523Y-96540571D01*
X148479523Y-96540571D02*
X148574761Y-96588190D01*
X148574761Y-96588190D02*
X148622380Y-96635809D01*
X148622380Y-96635809D02*
X148669999Y-96731047D01*
X147717618Y-96254857D02*
X147669999Y-96207238D01*
X147669999Y-96207238D02*
X147574761Y-96159619D01*
X147574761Y-96159619D02*
X147336666Y-96159619D01*
X147336666Y-96159619D02*
X147241428Y-96207238D01*
X147241428Y-96207238D02*
X147193809Y-96254857D01*
X147193809Y-96254857D02*
X147146190Y-96350095D01*
X147146190Y-96350095D02*
X147146190Y-96445333D01*
X147146190Y-96445333D02*
X147193809Y-96588190D01*
X147193809Y-96588190D02*
X147765237Y-97159619D01*
X147765237Y-97159619D02*
X147146190Y-97159619D01*
X146098570Y-96159619D02*
X145527142Y-96159619D01*
X145812856Y-97159619D02*
X145812856Y-96159619D01*
X144812856Y-97112000D02*
X144908094Y-97159619D01*
X144908094Y-97159619D02*
X145098570Y-97159619D01*
X145098570Y-97159619D02*
X145193808Y-97112000D01*
X145193808Y-97112000D02*
X145241427Y-97016761D01*
X145241427Y-97016761D02*
X145241427Y-96635809D01*
X145241427Y-96635809D02*
X145193808Y-96540571D01*
X145193808Y-96540571D02*
X145098570Y-96492952D01*
X145098570Y-96492952D02*
X144908094Y-96492952D01*
X144908094Y-96492952D02*
X144812856Y-96540571D01*
X144812856Y-96540571D02*
X144765237Y-96635809D01*
X144765237Y-96635809D02*
X144765237Y-96731047D01*
X144765237Y-96731047D02*
X145241427Y-96826285D01*
X144384284Y-97112000D02*
X144289046Y-97159619D01*
X144289046Y-97159619D02*
X144098570Y-97159619D01*
X144098570Y-97159619D02*
X144003332Y-97112000D01*
X144003332Y-97112000D02*
X143955713Y-97016761D01*
X143955713Y-97016761D02*
X143955713Y-96969142D01*
X143955713Y-96969142D02*
X144003332Y-96873904D01*
X144003332Y-96873904D02*
X144098570Y-96826285D01*
X144098570Y-96826285D02*
X144241427Y-96826285D01*
X144241427Y-96826285D02*
X144336665Y-96778666D01*
X144336665Y-96778666D02*
X144384284Y-96683428D01*
X144384284Y-96683428D02*
X144384284Y-96635809D01*
X144384284Y-96635809D02*
X144336665Y-96540571D01*
X144336665Y-96540571D02*
X144241427Y-96492952D01*
X144241427Y-96492952D02*
X144098570Y-96492952D01*
X144098570Y-96492952D02*
X144003332Y-96540571D01*
X143669998Y-96492952D02*
X143289046Y-96492952D01*
X143527141Y-96159619D02*
X143527141Y-97016761D01*
X143527141Y-97016761D02*
X143479522Y-97112000D01*
X143479522Y-97112000D02*
X143384284Y-97159619D01*
X143384284Y-97159619D02*
X143289046Y-97159619D01*
X142955712Y-97159619D02*
X142955712Y-96159619D01*
X142955712Y-96540571D02*
X142860474Y-96492952D01*
X142860474Y-96492952D02*
X142669998Y-96492952D01*
X142669998Y-96492952D02*
X142574760Y-96540571D01*
X142574760Y-96540571D02*
X142527141Y-96588190D01*
X142527141Y-96588190D02*
X142479522Y-96683428D01*
X142479522Y-96683428D02*
X142479522Y-96969142D01*
X142479522Y-96969142D02*
X142527141Y-97064380D01*
X142527141Y-97064380D02*
X142574760Y-97112000D01*
X142574760Y-97112000D02*
X142669998Y-97159619D01*
X142669998Y-97159619D02*
X142860474Y-97159619D01*
X142860474Y-97159619D02*
X142955712Y-97112000D01*
X141908093Y-97159619D02*
X142003331Y-97112000D01*
X142003331Y-97112000D02*
X142050950Y-97064380D01*
X142050950Y-97064380D02*
X142098569Y-96969142D01*
X142098569Y-96969142D02*
X142098569Y-96683428D01*
X142098569Y-96683428D02*
X142050950Y-96588190D01*
X142050950Y-96588190D02*
X142003331Y-96540571D01*
X142003331Y-96540571D02*
X141908093Y-96492952D01*
X141908093Y-96492952D02*
X141765236Y-96492952D01*
X141765236Y-96492952D02*
X141669998Y-96540571D01*
X141669998Y-96540571D02*
X141622379Y-96588190D01*
X141622379Y-96588190D02*
X141574760Y-96683428D01*
X141574760Y-96683428D02*
X141574760Y-96969142D01*
X141574760Y-96969142D02*
X141622379Y-97064380D01*
X141622379Y-97064380D02*
X141669998Y-97112000D01*
X141669998Y-97112000D02*
X141765236Y-97159619D01*
X141765236Y-97159619D02*
X141908093Y-97159619D01*
X140717617Y-97159619D02*
X140717617Y-96635809D01*
X140717617Y-96635809D02*
X140765236Y-96540571D01*
X140765236Y-96540571D02*
X140860474Y-96492952D01*
X140860474Y-96492952D02*
X141050950Y-96492952D01*
X141050950Y-96492952D02*
X141146188Y-96540571D01*
X140717617Y-97112000D02*
X140812855Y-97159619D01*
X140812855Y-97159619D02*
X141050950Y-97159619D01*
X141050950Y-97159619D02*
X141146188Y-97112000D01*
X141146188Y-97112000D02*
X141193807Y-97016761D01*
X141193807Y-97016761D02*
X141193807Y-96921523D01*
X141193807Y-96921523D02*
X141146188Y-96826285D01*
X141146188Y-96826285D02*
X141050950Y-96778666D01*
X141050950Y-96778666D02*
X140812855Y-96778666D01*
X140812855Y-96778666D02*
X140717617Y-96731047D01*
X140241426Y-97159619D02*
X140241426Y-96492952D01*
X140241426Y-96683428D02*
X140193807Y-96588190D01*
X140193807Y-96588190D02*
X140146188Y-96540571D01*
X140146188Y-96540571D02*
X140050950Y-96492952D01*
X140050950Y-96492952D02*
X139955712Y-96492952D01*
X139193807Y-97159619D02*
X139193807Y-96159619D01*
X139193807Y-97112000D02*
X139289045Y-97159619D01*
X139289045Y-97159619D02*
X139479521Y-97159619D01*
X139479521Y-97159619D02*
X139574759Y-97112000D01*
X139574759Y-97112000D02*
X139622378Y-97064380D01*
X139622378Y-97064380D02*
X139669997Y-96969142D01*
X139669997Y-96969142D02*
X139669997Y-96683428D01*
X139669997Y-96683428D02*
X139622378Y-96588190D01*
X139622378Y-96588190D02*
X139574759Y-96540571D01*
X139574759Y-96540571D02*
X139479521Y-96492952D01*
X139479521Y-96492952D02*
X139289045Y-96492952D01*
X139289045Y-96492952D02*
X139193807Y-96540571D01*
X137384283Y-97159619D02*
X137717616Y-96683428D01*
X137955711Y-97159619D02*
X137955711Y-96159619D01*
X137955711Y-96159619D02*
X137574759Y-96159619D01*
X137574759Y-96159619D02*
X137479521Y-96207238D01*
X137479521Y-96207238D02*
X137431902Y-96254857D01*
X137431902Y-96254857D02*
X137384283Y-96350095D01*
X137384283Y-96350095D02*
X137384283Y-96492952D01*
X137384283Y-96492952D02*
X137431902Y-96588190D01*
X137431902Y-96588190D02*
X137479521Y-96635809D01*
X137479521Y-96635809D02*
X137574759Y-96683428D01*
X137574759Y-96683428D02*
X137955711Y-96683428D01*
X136574759Y-97112000D02*
X136669997Y-97159619D01*
X136669997Y-97159619D02*
X136860473Y-97159619D01*
X136860473Y-97159619D02*
X136955711Y-97112000D01*
X136955711Y-97112000D02*
X137003330Y-97016761D01*
X137003330Y-97016761D02*
X137003330Y-96635809D01*
X137003330Y-96635809D02*
X136955711Y-96540571D01*
X136955711Y-96540571D02*
X136860473Y-96492952D01*
X136860473Y-96492952D02*
X136669997Y-96492952D01*
X136669997Y-96492952D02*
X136574759Y-96540571D01*
X136574759Y-96540571D02*
X136527140Y-96635809D01*
X136527140Y-96635809D02*
X136527140Y-96731047D01*
X136527140Y-96731047D02*
X137003330Y-96826285D01*
X136193806Y-96492952D02*
X135955711Y-97159619D01*
X135955711Y-97159619D02*
X135717616Y-96492952D01*
X135384282Y-96873904D02*
X134908092Y-96873904D01*
X135479520Y-97159619D02*
X135146187Y-96159619D01*
X135146187Y-96159619D02*
X134812854Y-97159619D01*
X133193806Y-97159619D02*
X133765234Y-97159619D01*
X133479520Y-97159619D02*
X133479520Y-96159619D01*
X133479520Y-96159619D02*
X133574758Y-96302476D01*
X133574758Y-96302476D02*
X133669996Y-96397714D01*
X133669996Y-96397714D02*
X133765234Y-96445333D01*
X132336663Y-96159619D02*
X132527139Y-96159619D01*
X132527139Y-96159619D02*
X132622377Y-96207238D01*
X132622377Y-96207238D02*
X132669996Y-96254857D01*
X132669996Y-96254857D02*
X132765234Y-96397714D01*
X132765234Y-96397714D02*
X132812853Y-96588190D01*
X132812853Y-96588190D02*
X132812853Y-96969142D01*
X132812853Y-96969142D02*
X132765234Y-97064380D01*
X132765234Y-97064380D02*
X132717615Y-97112000D01*
X132717615Y-97112000D02*
X132622377Y-97159619D01*
X132622377Y-97159619D02*
X132431901Y-97159619D01*
X132431901Y-97159619D02*
X132336663Y-97112000D01*
X132336663Y-97112000D02*
X132289044Y-97064380D01*
X132289044Y-97064380D02*
X132241425Y-96969142D01*
X132241425Y-96969142D02*
X132241425Y-96731047D01*
X132241425Y-96731047D02*
X132289044Y-96635809D01*
X132289044Y-96635809D02*
X132336663Y-96588190D01*
X132336663Y-96588190D02*
X132431901Y-96540571D01*
X132431901Y-96540571D02*
X132622377Y-96540571D01*
X132622377Y-96540571D02*
X132717615Y-96588190D01*
X132717615Y-96588190D02*
X132765234Y-96635809D01*
X132765234Y-96635809D02*
X132812853Y-96731047D01*
X131098568Y-96112000D02*
X131955710Y-97397714D01*
X130812853Y-96254857D02*
X130765234Y-96207238D01*
X130765234Y-96207238D02*
X130669996Y-96159619D01*
X130669996Y-96159619D02*
X130431901Y-96159619D01*
X130431901Y-96159619D02*
X130336663Y-96207238D01*
X130336663Y-96207238D02*
X130289044Y-96254857D01*
X130289044Y-96254857D02*
X130241425Y-96350095D01*
X130241425Y-96350095D02*
X130241425Y-96445333D01*
X130241425Y-96445333D02*
X130289044Y-96588190D01*
X130289044Y-96588190D02*
X130860472Y-97159619D01*
X130860472Y-97159619D02*
X130241425Y-97159619D01*
X129908091Y-96159619D02*
X129289044Y-96159619D01*
X129289044Y-96159619D02*
X129622377Y-96540571D01*
X129622377Y-96540571D02*
X129479520Y-96540571D01*
X129479520Y-96540571D02*
X129384282Y-96588190D01*
X129384282Y-96588190D02*
X129336663Y-96635809D01*
X129336663Y-96635809D02*
X129289044Y-96731047D01*
X129289044Y-96731047D02*
X129289044Y-96969142D01*
X129289044Y-96969142D02*
X129336663Y-97064380D01*
X129336663Y-97064380D02*
X129384282Y-97112000D01*
X129384282Y-97112000D02*
X129479520Y-97159619D01*
X129479520Y-97159619D02*
X129765234Y-97159619D01*
X129765234Y-97159619D02*
X129860472Y-97112000D01*
X129860472Y-97112000D02*
X129908091Y-97064380D01*
M02*
