%TF.GenerationSoftware,KiCad,Pcbnew,7.0.1-3b83917a11~172~ubuntu22.04.1*%
%TF.CreationDate,2023-04-19T02:42:24+01:00*%
%TF.ProjectId,mxr_microamp,6d78725f-6d69-4637-926f-616d702e6b69,rev?*%
%TF.SameCoordinates,Original*%
%TF.FileFunction,Legend,Top*%
%TF.FilePolarity,Positive*%
%FSLAX46Y46*%
G04 Gerber Fmt 4.6, Leading zero omitted, Abs format (unit mm)*
G04 Created by KiCad (PCBNEW 7.0.1-3b83917a11~172~ubuntu22.04.1) date 2023-04-19 02:42:24*
%MOMM*%
%LPD*%
G01*
G04 APERTURE LIST*
%ADD10C,0.500000*%
%ADD11C,0.150000*%
%ADD12C,0.120000*%
G04 APERTURE END LIST*
D10*
X144780001Y-103505000D02*
G75*
G03*
X144780001Y-103505000I-1J0D01*
G01*
X144526001Y-86868000D02*
G75*
G03*
X144526001Y-86868000I-1J0D01*
G01*
X141351001Y-72390001D02*
G75*
G03*
X141351001Y-72390001I-1J0D01*
G01*
D11*
X129743200Y-90449400D02*
X129540000Y-90220800D01*
X129743200Y-90449400D02*
X129540000Y-90728800D01*
X129743200Y-90449400D02*
X128676400Y-90449400D01*
X128676400Y-91998800D02*
X128676400Y-89027000D01*
%TO.C,J7*%
X128425866Y-84374819D02*
X127949676Y-84374819D01*
X127949676Y-84374819D02*
X127902057Y-84851009D01*
X127902057Y-84851009D02*
X127949676Y-84803390D01*
X127949676Y-84803390D02*
X128044914Y-84755771D01*
X128044914Y-84755771D02*
X128283009Y-84755771D01*
X128283009Y-84755771D02*
X128378247Y-84803390D01*
X128378247Y-84803390D02*
X128425866Y-84851009D01*
X128425866Y-84851009D02*
X128473485Y-84946247D01*
X128473485Y-84946247D02*
X128473485Y-85184342D01*
X128473485Y-85184342D02*
X128425866Y-85279580D01*
X128425866Y-85279580D02*
X128378247Y-85327200D01*
X128378247Y-85327200D02*
X128283009Y-85374819D01*
X128283009Y-85374819D02*
X128044914Y-85374819D01*
X128044914Y-85374819D02*
X127949676Y-85327200D01*
X127949676Y-85327200D02*
X127902057Y-85279580D01*
X128759200Y-84374819D02*
X129092533Y-85374819D01*
X129092533Y-85374819D02*
X129425866Y-84374819D01*
X129759200Y-85374819D02*
X129759200Y-84374819D01*
X129759200Y-84374819D02*
X129997295Y-84374819D01*
X129997295Y-84374819D02*
X130140152Y-84422438D01*
X130140152Y-84422438D02*
X130235390Y-84517676D01*
X130235390Y-84517676D02*
X130283009Y-84612914D01*
X130283009Y-84612914D02*
X130330628Y-84803390D01*
X130330628Y-84803390D02*
X130330628Y-84946247D01*
X130330628Y-84946247D02*
X130283009Y-85136723D01*
X130283009Y-85136723D02*
X130235390Y-85231961D01*
X130235390Y-85231961D02*
X130140152Y-85327200D01*
X130140152Y-85327200D02*
X129997295Y-85374819D01*
X129997295Y-85374819D02*
X129759200Y-85374819D01*
X131330628Y-85279580D02*
X131283009Y-85327200D01*
X131283009Y-85327200D02*
X131140152Y-85374819D01*
X131140152Y-85374819D02*
X131044914Y-85374819D01*
X131044914Y-85374819D02*
X130902057Y-85327200D01*
X130902057Y-85327200D02*
X130806819Y-85231961D01*
X130806819Y-85231961D02*
X130759200Y-85136723D01*
X130759200Y-85136723D02*
X130711581Y-84946247D01*
X130711581Y-84946247D02*
X130711581Y-84803390D01*
X130711581Y-84803390D02*
X130759200Y-84612914D01*
X130759200Y-84612914D02*
X130806819Y-84517676D01*
X130806819Y-84517676D02*
X130902057Y-84422438D01*
X130902057Y-84422438D02*
X131044914Y-84374819D01*
X131044914Y-84374819D02*
X131140152Y-84374819D01*
X131140152Y-84374819D02*
X131283009Y-84422438D01*
X131283009Y-84422438D02*
X131330628Y-84470057D01*
X132521105Y-85374819D02*
X132521105Y-84374819D01*
X132997295Y-85374819D02*
X132997295Y-84374819D01*
X132997295Y-84374819D02*
X133568723Y-85374819D01*
X133568723Y-85374819D02*
X133568723Y-84374819D01*
%TO.C,J6*%
X127666857Y-94903000D02*
X127809714Y-94950619D01*
X127809714Y-94950619D02*
X128047809Y-94950619D01*
X128047809Y-94950619D02*
X128143047Y-94903000D01*
X128143047Y-94903000D02*
X128190666Y-94855380D01*
X128190666Y-94855380D02*
X128238285Y-94760142D01*
X128238285Y-94760142D02*
X128238285Y-94664904D01*
X128238285Y-94664904D02*
X128190666Y-94569666D01*
X128190666Y-94569666D02*
X128143047Y-94522047D01*
X128143047Y-94522047D02*
X128047809Y-94474428D01*
X128047809Y-94474428D02*
X127857333Y-94426809D01*
X127857333Y-94426809D02*
X127762095Y-94379190D01*
X127762095Y-94379190D02*
X127714476Y-94331571D01*
X127714476Y-94331571D02*
X127666857Y-94236333D01*
X127666857Y-94236333D02*
X127666857Y-94141095D01*
X127666857Y-94141095D02*
X127714476Y-94045857D01*
X127714476Y-94045857D02*
X127762095Y-93998238D01*
X127762095Y-93998238D02*
X127857333Y-93950619D01*
X127857333Y-93950619D02*
X128095428Y-93950619D01*
X128095428Y-93950619D02*
X128238285Y-93998238D01*
X128571619Y-93950619D02*
X128809714Y-94950619D01*
X128809714Y-94950619D02*
X129000190Y-94236333D01*
X129000190Y-94236333D02*
X129190666Y-94950619D01*
X129190666Y-94950619D02*
X129428762Y-93950619D01*
X128333523Y-92452019D02*
X127857333Y-92452019D01*
X127857333Y-92452019D02*
X127809714Y-92928209D01*
X127809714Y-92928209D02*
X127857333Y-92880590D01*
X127857333Y-92880590D02*
X127952571Y-92832971D01*
X127952571Y-92832971D02*
X128190666Y-92832971D01*
X128190666Y-92832971D02*
X128285904Y-92880590D01*
X128285904Y-92880590D02*
X128333523Y-92928209D01*
X128333523Y-92928209D02*
X128381142Y-93023447D01*
X128381142Y-93023447D02*
X128381142Y-93261542D01*
X128381142Y-93261542D02*
X128333523Y-93356780D01*
X128333523Y-93356780D02*
X128285904Y-93404400D01*
X128285904Y-93404400D02*
X128190666Y-93452019D01*
X128190666Y-93452019D02*
X127952571Y-93452019D01*
X127952571Y-93452019D02*
X127857333Y-93404400D01*
X127857333Y-93404400D02*
X127809714Y-93356780D01*
X128666857Y-92452019D02*
X129000190Y-93452019D01*
X129000190Y-93452019D02*
X129333523Y-92452019D01*
X128384323Y-87473619D02*
X127908133Y-87473619D01*
X127908133Y-87473619D02*
X127860514Y-87949809D01*
X127860514Y-87949809D02*
X127908133Y-87902190D01*
X127908133Y-87902190D02*
X128003371Y-87854571D01*
X128003371Y-87854571D02*
X128241466Y-87854571D01*
X128241466Y-87854571D02*
X128336704Y-87902190D01*
X128336704Y-87902190D02*
X128384323Y-87949809D01*
X128384323Y-87949809D02*
X128431942Y-88045047D01*
X128431942Y-88045047D02*
X128431942Y-88283142D01*
X128431942Y-88283142D02*
X128384323Y-88378380D01*
X128384323Y-88378380D02*
X128336704Y-88426000D01*
X128336704Y-88426000D02*
X128241466Y-88473619D01*
X128241466Y-88473619D02*
X128003371Y-88473619D01*
X128003371Y-88473619D02*
X127908133Y-88426000D01*
X127908133Y-88426000D02*
X127860514Y-88378380D01*
X128717657Y-87473619D02*
X129050990Y-88473619D01*
X129050990Y-88473619D02*
X129384323Y-87473619D01*
%TO.C,R13*%
X136098619Y-72905857D02*
X135622428Y-73239190D01*
X136098619Y-73477285D02*
X135098619Y-73477285D01*
X135098619Y-73477285D02*
X135098619Y-73096333D01*
X135098619Y-73096333D02*
X135146238Y-73001095D01*
X135146238Y-73001095D02*
X135193857Y-72953476D01*
X135193857Y-72953476D02*
X135289095Y-72905857D01*
X135289095Y-72905857D02*
X135431952Y-72905857D01*
X135431952Y-72905857D02*
X135527190Y-72953476D01*
X135527190Y-72953476D02*
X135574809Y-73001095D01*
X135574809Y-73001095D02*
X135622428Y-73096333D01*
X135622428Y-73096333D02*
X135622428Y-73477285D01*
X136098619Y-71953476D02*
X136098619Y-72524904D01*
X136098619Y-72239190D02*
X135098619Y-72239190D01*
X135098619Y-72239190D02*
X135241476Y-72334428D01*
X135241476Y-72334428D02*
X135336714Y-72429666D01*
X135336714Y-72429666D02*
X135384333Y-72524904D01*
X135098619Y-71620142D02*
X135098619Y-71001095D01*
X135098619Y-71001095D02*
X135479571Y-71334428D01*
X135479571Y-71334428D02*
X135479571Y-71191571D01*
X135479571Y-71191571D02*
X135527190Y-71096333D01*
X135527190Y-71096333D02*
X135574809Y-71048714D01*
X135574809Y-71048714D02*
X135670047Y-71001095D01*
X135670047Y-71001095D02*
X135908142Y-71001095D01*
X135908142Y-71001095D02*
X136003380Y-71048714D01*
X136003380Y-71048714D02*
X136051000Y-71096333D01*
X136051000Y-71096333D02*
X136098619Y-71191571D01*
X136098619Y-71191571D02*
X136098619Y-71477285D01*
X136098619Y-71477285D02*
X136051000Y-71572523D01*
X136051000Y-71572523D02*
X136003380Y-71620142D01*
%TO.C,R12*%
X142155942Y-65283419D02*
X141822609Y-64807228D01*
X141584514Y-65283419D02*
X141584514Y-64283419D01*
X141584514Y-64283419D02*
X141965466Y-64283419D01*
X141965466Y-64283419D02*
X142060704Y-64331038D01*
X142060704Y-64331038D02*
X142108323Y-64378657D01*
X142108323Y-64378657D02*
X142155942Y-64473895D01*
X142155942Y-64473895D02*
X142155942Y-64616752D01*
X142155942Y-64616752D02*
X142108323Y-64711990D01*
X142108323Y-64711990D02*
X142060704Y-64759609D01*
X142060704Y-64759609D02*
X141965466Y-64807228D01*
X141965466Y-64807228D02*
X141584514Y-64807228D01*
X143108323Y-65283419D02*
X142536895Y-65283419D01*
X142822609Y-65283419D02*
X142822609Y-64283419D01*
X142822609Y-64283419D02*
X142727371Y-64426276D01*
X142727371Y-64426276D02*
X142632133Y-64521514D01*
X142632133Y-64521514D02*
X142536895Y-64569133D01*
X143489276Y-64378657D02*
X143536895Y-64331038D01*
X143536895Y-64331038D02*
X143632133Y-64283419D01*
X143632133Y-64283419D02*
X143870228Y-64283419D01*
X143870228Y-64283419D02*
X143965466Y-64331038D01*
X143965466Y-64331038D02*
X144013085Y-64378657D01*
X144013085Y-64378657D02*
X144060704Y-64473895D01*
X144060704Y-64473895D02*
X144060704Y-64569133D01*
X144060704Y-64569133D02*
X144013085Y-64711990D01*
X144013085Y-64711990D02*
X143441657Y-65283419D01*
X143441657Y-65283419D02*
X144060704Y-65283419D01*
%TO.C,C10*%
X143226642Y-79869380D02*
X143179023Y-79917000D01*
X143179023Y-79917000D02*
X143036166Y-79964619D01*
X143036166Y-79964619D02*
X142940928Y-79964619D01*
X142940928Y-79964619D02*
X142798071Y-79917000D01*
X142798071Y-79917000D02*
X142702833Y-79821761D01*
X142702833Y-79821761D02*
X142655214Y-79726523D01*
X142655214Y-79726523D02*
X142607595Y-79536047D01*
X142607595Y-79536047D02*
X142607595Y-79393190D01*
X142607595Y-79393190D02*
X142655214Y-79202714D01*
X142655214Y-79202714D02*
X142702833Y-79107476D01*
X142702833Y-79107476D02*
X142798071Y-79012238D01*
X142798071Y-79012238D02*
X142940928Y-78964619D01*
X142940928Y-78964619D02*
X143036166Y-78964619D01*
X143036166Y-78964619D02*
X143179023Y-79012238D01*
X143179023Y-79012238D02*
X143226642Y-79059857D01*
X144179023Y-79964619D02*
X143607595Y-79964619D01*
X143893309Y-79964619D02*
X143893309Y-78964619D01*
X143893309Y-78964619D02*
X143798071Y-79107476D01*
X143798071Y-79107476D02*
X143702833Y-79202714D01*
X143702833Y-79202714D02*
X143607595Y-79250333D01*
X144798071Y-78964619D02*
X144893309Y-78964619D01*
X144893309Y-78964619D02*
X144988547Y-79012238D01*
X144988547Y-79012238D02*
X145036166Y-79059857D01*
X145036166Y-79059857D02*
X145083785Y-79155095D01*
X145083785Y-79155095D02*
X145131404Y-79345571D01*
X145131404Y-79345571D02*
X145131404Y-79583666D01*
X145131404Y-79583666D02*
X145083785Y-79774142D01*
X145083785Y-79774142D02*
X145036166Y-79869380D01*
X145036166Y-79869380D02*
X144988547Y-79917000D01*
X144988547Y-79917000D02*
X144893309Y-79964619D01*
X144893309Y-79964619D02*
X144798071Y-79964619D01*
X144798071Y-79964619D02*
X144702833Y-79917000D01*
X144702833Y-79917000D02*
X144655214Y-79869380D01*
X144655214Y-79869380D02*
X144607595Y-79774142D01*
X144607595Y-79774142D02*
X144559976Y-79583666D01*
X144559976Y-79583666D02*
X144559976Y-79345571D01*
X144559976Y-79345571D02*
X144607595Y-79155095D01*
X144607595Y-79155095D02*
X144655214Y-79059857D01*
X144655214Y-79059857D02*
X144702833Y-79012238D01*
X144702833Y-79012238D02*
X144798071Y-78964619D01*
%TO.C,C9*%
X136003380Y-79795666D02*
X136051000Y-79843285D01*
X136051000Y-79843285D02*
X136098619Y-79986142D01*
X136098619Y-79986142D02*
X136098619Y-80081380D01*
X136098619Y-80081380D02*
X136051000Y-80224237D01*
X136051000Y-80224237D02*
X135955761Y-80319475D01*
X135955761Y-80319475D02*
X135860523Y-80367094D01*
X135860523Y-80367094D02*
X135670047Y-80414713D01*
X135670047Y-80414713D02*
X135527190Y-80414713D01*
X135527190Y-80414713D02*
X135336714Y-80367094D01*
X135336714Y-80367094D02*
X135241476Y-80319475D01*
X135241476Y-80319475D02*
X135146238Y-80224237D01*
X135146238Y-80224237D02*
X135098619Y-80081380D01*
X135098619Y-80081380D02*
X135098619Y-79986142D01*
X135098619Y-79986142D02*
X135146238Y-79843285D01*
X135146238Y-79843285D02*
X135193857Y-79795666D01*
X136098619Y-79319475D02*
X136098619Y-79128999D01*
X136098619Y-79128999D02*
X136051000Y-79033761D01*
X136051000Y-79033761D02*
X136003380Y-78986142D01*
X136003380Y-78986142D02*
X135860523Y-78890904D01*
X135860523Y-78890904D02*
X135670047Y-78843285D01*
X135670047Y-78843285D02*
X135289095Y-78843285D01*
X135289095Y-78843285D02*
X135193857Y-78890904D01*
X135193857Y-78890904D02*
X135146238Y-78938523D01*
X135146238Y-78938523D02*
X135098619Y-79033761D01*
X135098619Y-79033761D02*
X135098619Y-79224237D01*
X135098619Y-79224237D02*
X135146238Y-79319475D01*
X135146238Y-79319475D02*
X135193857Y-79367094D01*
X135193857Y-79367094D02*
X135289095Y-79414713D01*
X135289095Y-79414713D02*
X135527190Y-79414713D01*
X135527190Y-79414713D02*
X135622428Y-79367094D01*
X135622428Y-79367094D02*
X135670047Y-79319475D01*
X135670047Y-79319475D02*
X135717666Y-79224237D01*
X135717666Y-79224237D02*
X135717666Y-79033761D01*
X135717666Y-79033761D02*
X135670047Y-78938523D01*
X135670047Y-78938523D02*
X135622428Y-78890904D01*
X135622428Y-78890904D02*
X135527190Y-78843285D01*
%TO.C,C3*%
X155767833Y-75170380D02*
X155720214Y-75218000D01*
X155720214Y-75218000D02*
X155577357Y-75265619D01*
X155577357Y-75265619D02*
X155482119Y-75265619D01*
X155482119Y-75265619D02*
X155339262Y-75218000D01*
X155339262Y-75218000D02*
X155244024Y-75122761D01*
X155244024Y-75122761D02*
X155196405Y-75027523D01*
X155196405Y-75027523D02*
X155148786Y-74837047D01*
X155148786Y-74837047D02*
X155148786Y-74694190D01*
X155148786Y-74694190D02*
X155196405Y-74503714D01*
X155196405Y-74503714D02*
X155244024Y-74408476D01*
X155244024Y-74408476D02*
X155339262Y-74313238D01*
X155339262Y-74313238D02*
X155482119Y-74265619D01*
X155482119Y-74265619D02*
X155577357Y-74265619D01*
X155577357Y-74265619D02*
X155720214Y-74313238D01*
X155720214Y-74313238D02*
X155767833Y-74360857D01*
X156101167Y-74265619D02*
X156720214Y-74265619D01*
X156720214Y-74265619D02*
X156386881Y-74646571D01*
X156386881Y-74646571D02*
X156529738Y-74646571D01*
X156529738Y-74646571D02*
X156624976Y-74694190D01*
X156624976Y-74694190D02*
X156672595Y-74741809D01*
X156672595Y-74741809D02*
X156720214Y-74837047D01*
X156720214Y-74837047D02*
X156720214Y-75075142D01*
X156720214Y-75075142D02*
X156672595Y-75170380D01*
X156672595Y-75170380D02*
X156624976Y-75218000D01*
X156624976Y-75218000D02*
X156529738Y-75265619D01*
X156529738Y-75265619D02*
X156244024Y-75265619D01*
X156244024Y-75265619D02*
X156148786Y-75218000D01*
X156148786Y-75218000D02*
X156101167Y-75170380D01*
%TO.C,R7*%
X149439333Y-82758619D02*
X149106000Y-82282428D01*
X148867905Y-82758619D02*
X148867905Y-81758619D01*
X148867905Y-81758619D02*
X149248857Y-81758619D01*
X149248857Y-81758619D02*
X149344095Y-81806238D01*
X149344095Y-81806238D02*
X149391714Y-81853857D01*
X149391714Y-81853857D02*
X149439333Y-81949095D01*
X149439333Y-81949095D02*
X149439333Y-82091952D01*
X149439333Y-82091952D02*
X149391714Y-82187190D01*
X149391714Y-82187190D02*
X149344095Y-82234809D01*
X149344095Y-82234809D02*
X149248857Y-82282428D01*
X149248857Y-82282428D02*
X148867905Y-82282428D01*
X149772667Y-81758619D02*
X150439333Y-81758619D01*
X150439333Y-81758619D02*
X150010762Y-82758619D01*
%TO.C,J2*%
X152422266Y-64005819D02*
X152422266Y-64720104D01*
X152422266Y-64720104D02*
X152374647Y-64862961D01*
X152374647Y-64862961D02*
X152279409Y-64958200D01*
X152279409Y-64958200D02*
X152136552Y-65005819D01*
X152136552Y-65005819D02*
X152041314Y-65005819D01*
X152850838Y-64101057D02*
X152898457Y-64053438D01*
X152898457Y-64053438D02*
X152993695Y-64005819D01*
X152993695Y-64005819D02*
X153231790Y-64005819D01*
X153231790Y-64005819D02*
X153327028Y-64053438D01*
X153327028Y-64053438D02*
X153374647Y-64101057D01*
X153374647Y-64101057D02*
X153422266Y-64196295D01*
X153422266Y-64196295D02*
X153422266Y-64291533D01*
X153422266Y-64291533D02*
X153374647Y-64434390D01*
X153374647Y-64434390D02*
X152803219Y-65005819D01*
X152803219Y-65005819D02*
X153422266Y-65005819D01*
X155012219Y-70425961D02*
X155012219Y-70235485D01*
X155012219Y-70235485D02*
X155059838Y-70140247D01*
X155059838Y-70140247D02*
X155155076Y-70045009D01*
X155155076Y-70045009D02*
X155345552Y-69997390D01*
X155345552Y-69997390D02*
X155678885Y-69997390D01*
X155678885Y-69997390D02*
X155869361Y-70045009D01*
X155869361Y-70045009D02*
X155964600Y-70140247D01*
X155964600Y-70140247D02*
X156012219Y-70235485D01*
X156012219Y-70235485D02*
X156012219Y-70425961D01*
X156012219Y-70425961D02*
X155964600Y-70521199D01*
X155964600Y-70521199D02*
X155869361Y-70616437D01*
X155869361Y-70616437D02*
X155678885Y-70664056D01*
X155678885Y-70664056D02*
X155345552Y-70664056D01*
X155345552Y-70664056D02*
X155155076Y-70616437D01*
X155155076Y-70616437D02*
X155059838Y-70521199D01*
X155059838Y-70521199D02*
X155012219Y-70425961D01*
X155012219Y-69568818D02*
X155821742Y-69568818D01*
X155821742Y-69568818D02*
X155916980Y-69521199D01*
X155916980Y-69521199D02*
X155964600Y-69473580D01*
X155964600Y-69473580D02*
X156012219Y-69378342D01*
X156012219Y-69378342D02*
X156012219Y-69187866D01*
X156012219Y-69187866D02*
X155964600Y-69092628D01*
X155964600Y-69092628D02*
X155916980Y-69045009D01*
X155916980Y-69045009D02*
X155821742Y-68997390D01*
X155821742Y-68997390D02*
X155012219Y-68997390D01*
X155012219Y-68664056D02*
X155012219Y-68092628D01*
X156012219Y-68378342D02*
X155012219Y-68378342D01*
X156012219Y-67759294D02*
X155012219Y-67759294D01*
X155012219Y-67759294D02*
X155012219Y-67378342D01*
X155012219Y-67378342D02*
X155059838Y-67283104D01*
X155059838Y-67283104D02*
X155107457Y-67235485D01*
X155107457Y-67235485D02*
X155202695Y-67187866D01*
X155202695Y-67187866D02*
X155345552Y-67187866D01*
X155345552Y-67187866D02*
X155440790Y-67235485D01*
X155440790Y-67235485D02*
X155488409Y-67283104D01*
X155488409Y-67283104D02*
X155536028Y-67378342D01*
X155536028Y-67378342D02*
X155536028Y-67759294D01*
X155012219Y-66759294D02*
X155821742Y-66759294D01*
X155821742Y-66759294D02*
X155916980Y-66711675D01*
X155916980Y-66711675D02*
X155964600Y-66664056D01*
X155964600Y-66664056D02*
X156012219Y-66568818D01*
X156012219Y-66568818D02*
X156012219Y-66378342D01*
X156012219Y-66378342D02*
X155964600Y-66283104D01*
X155964600Y-66283104D02*
X155916980Y-66235485D01*
X155916980Y-66235485D02*
X155821742Y-66187866D01*
X155821742Y-66187866D02*
X155012219Y-66187866D01*
X155012219Y-65854532D02*
X155012219Y-65283104D01*
X156012219Y-65568818D02*
X155012219Y-65568818D01*
%TO.C,C7*%
X135515380Y-86018666D02*
X135563000Y-86066285D01*
X135563000Y-86066285D02*
X135610619Y-86209142D01*
X135610619Y-86209142D02*
X135610619Y-86304380D01*
X135610619Y-86304380D02*
X135563000Y-86447237D01*
X135563000Y-86447237D02*
X135467761Y-86542475D01*
X135467761Y-86542475D02*
X135372523Y-86590094D01*
X135372523Y-86590094D02*
X135182047Y-86637713D01*
X135182047Y-86637713D02*
X135039190Y-86637713D01*
X135039190Y-86637713D02*
X134848714Y-86590094D01*
X134848714Y-86590094D02*
X134753476Y-86542475D01*
X134753476Y-86542475D02*
X134658238Y-86447237D01*
X134658238Y-86447237D02*
X134610619Y-86304380D01*
X134610619Y-86304380D02*
X134610619Y-86209142D01*
X134610619Y-86209142D02*
X134658238Y-86066285D01*
X134658238Y-86066285D02*
X134705857Y-86018666D01*
X134610619Y-85685332D02*
X134610619Y-85018666D01*
X134610619Y-85018666D02*
X135610619Y-85447237D01*
%TO.C,C2*%
X128230333Y-65391380D02*
X128182714Y-65439000D01*
X128182714Y-65439000D02*
X128039857Y-65486619D01*
X128039857Y-65486619D02*
X127944619Y-65486619D01*
X127944619Y-65486619D02*
X127801762Y-65439000D01*
X127801762Y-65439000D02*
X127706524Y-65343761D01*
X127706524Y-65343761D02*
X127658905Y-65248523D01*
X127658905Y-65248523D02*
X127611286Y-65058047D01*
X127611286Y-65058047D02*
X127611286Y-64915190D01*
X127611286Y-64915190D02*
X127658905Y-64724714D01*
X127658905Y-64724714D02*
X127706524Y-64629476D01*
X127706524Y-64629476D02*
X127801762Y-64534238D01*
X127801762Y-64534238D02*
X127944619Y-64486619D01*
X127944619Y-64486619D02*
X128039857Y-64486619D01*
X128039857Y-64486619D02*
X128182714Y-64534238D01*
X128182714Y-64534238D02*
X128230333Y-64581857D01*
X128611286Y-64581857D02*
X128658905Y-64534238D01*
X128658905Y-64534238D02*
X128754143Y-64486619D01*
X128754143Y-64486619D02*
X128992238Y-64486619D01*
X128992238Y-64486619D02*
X129087476Y-64534238D01*
X129087476Y-64534238D02*
X129135095Y-64581857D01*
X129135095Y-64581857D02*
X129182714Y-64677095D01*
X129182714Y-64677095D02*
X129182714Y-64772333D01*
X129182714Y-64772333D02*
X129135095Y-64915190D01*
X129135095Y-64915190D02*
X128563667Y-65486619D01*
X128563667Y-65486619D02*
X129182714Y-65486619D01*
%TO.C,C5*%
X140189083Y-82643380D02*
X140141464Y-82691000D01*
X140141464Y-82691000D02*
X139998607Y-82738619D01*
X139998607Y-82738619D02*
X139903369Y-82738619D01*
X139903369Y-82738619D02*
X139760512Y-82691000D01*
X139760512Y-82691000D02*
X139665274Y-82595761D01*
X139665274Y-82595761D02*
X139617655Y-82500523D01*
X139617655Y-82500523D02*
X139570036Y-82310047D01*
X139570036Y-82310047D02*
X139570036Y-82167190D01*
X139570036Y-82167190D02*
X139617655Y-81976714D01*
X139617655Y-81976714D02*
X139665274Y-81881476D01*
X139665274Y-81881476D02*
X139760512Y-81786238D01*
X139760512Y-81786238D02*
X139903369Y-81738619D01*
X139903369Y-81738619D02*
X139998607Y-81738619D01*
X139998607Y-81738619D02*
X140141464Y-81786238D01*
X140141464Y-81786238D02*
X140189083Y-81833857D01*
X141093845Y-81738619D02*
X140617655Y-81738619D01*
X140617655Y-81738619D02*
X140570036Y-82214809D01*
X140570036Y-82214809D02*
X140617655Y-82167190D01*
X140617655Y-82167190D02*
X140712893Y-82119571D01*
X140712893Y-82119571D02*
X140950988Y-82119571D01*
X140950988Y-82119571D02*
X141046226Y-82167190D01*
X141046226Y-82167190D02*
X141093845Y-82214809D01*
X141093845Y-82214809D02*
X141141464Y-82310047D01*
X141141464Y-82310047D02*
X141141464Y-82548142D01*
X141141464Y-82548142D02*
X141093845Y-82643380D01*
X141093845Y-82643380D02*
X141046226Y-82691000D01*
X141046226Y-82691000D02*
X140950988Y-82738619D01*
X140950988Y-82738619D02*
X140712893Y-82738619D01*
X140712893Y-82738619D02*
X140617655Y-82691000D01*
X140617655Y-82691000D02*
X140570036Y-82643380D01*
%TO.C,R3*%
X136098619Y-75223666D02*
X135622428Y-75556999D01*
X136098619Y-75795094D02*
X135098619Y-75795094D01*
X135098619Y-75795094D02*
X135098619Y-75414142D01*
X135098619Y-75414142D02*
X135146238Y-75318904D01*
X135146238Y-75318904D02*
X135193857Y-75271285D01*
X135193857Y-75271285D02*
X135289095Y-75223666D01*
X135289095Y-75223666D02*
X135431952Y-75223666D01*
X135431952Y-75223666D02*
X135527190Y-75271285D01*
X135527190Y-75271285D02*
X135574809Y-75318904D01*
X135574809Y-75318904D02*
X135622428Y-75414142D01*
X135622428Y-75414142D02*
X135622428Y-75795094D01*
X135098619Y-74890332D02*
X135098619Y-74271285D01*
X135098619Y-74271285D02*
X135479571Y-74604618D01*
X135479571Y-74604618D02*
X135479571Y-74461761D01*
X135479571Y-74461761D02*
X135527190Y-74366523D01*
X135527190Y-74366523D02*
X135574809Y-74318904D01*
X135574809Y-74318904D02*
X135670047Y-74271285D01*
X135670047Y-74271285D02*
X135908142Y-74271285D01*
X135908142Y-74271285D02*
X136003380Y-74318904D01*
X136003380Y-74318904D02*
X136051000Y-74366523D01*
X136051000Y-74366523D02*
X136098619Y-74461761D01*
X136098619Y-74461761D02*
X136098619Y-74747475D01*
X136098619Y-74747475D02*
X136051000Y-74842713D01*
X136051000Y-74842713D02*
X136003380Y-74890332D01*
%TO.C,RV1*%
X142702619Y-68616438D02*
X142226428Y-68949771D01*
X142702619Y-69187866D02*
X141702619Y-69187866D01*
X141702619Y-69187866D02*
X141702619Y-68806914D01*
X141702619Y-68806914D02*
X141750238Y-68711676D01*
X141750238Y-68711676D02*
X141797857Y-68664057D01*
X141797857Y-68664057D02*
X141893095Y-68616438D01*
X141893095Y-68616438D02*
X142035952Y-68616438D01*
X142035952Y-68616438D02*
X142131190Y-68664057D01*
X142131190Y-68664057D02*
X142178809Y-68711676D01*
X142178809Y-68711676D02*
X142226428Y-68806914D01*
X142226428Y-68806914D02*
X142226428Y-69187866D01*
X141702619Y-68330723D02*
X142702619Y-67997390D01*
X142702619Y-67997390D02*
X141702619Y-67664057D01*
X142702619Y-66806914D02*
X142702619Y-67378342D01*
X142702619Y-67092628D02*
X141702619Y-67092628D01*
X141702619Y-67092628D02*
X141845476Y-67187866D01*
X141845476Y-67187866D02*
X141940714Y-67283104D01*
X141940714Y-67283104D02*
X141988333Y-67378342D01*
X133691428Y-65194638D02*
X133596190Y-65147019D01*
X133596190Y-65147019D02*
X133453333Y-65147019D01*
X133453333Y-65147019D02*
X133310476Y-65194638D01*
X133310476Y-65194638D02*
X133215238Y-65289876D01*
X133215238Y-65289876D02*
X133167619Y-65385114D01*
X133167619Y-65385114D02*
X133120000Y-65575590D01*
X133120000Y-65575590D02*
X133120000Y-65718447D01*
X133120000Y-65718447D02*
X133167619Y-65908923D01*
X133167619Y-65908923D02*
X133215238Y-66004161D01*
X133215238Y-66004161D02*
X133310476Y-66099400D01*
X133310476Y-66099400D02*
X133453333Y-66147019D01*
X133453333Y-66147019D02*
X133548571Y-66147019D01*
X133548571Y-66147019D02*
X133691428Y-66099400D01*
X133691428Y-66099400D02*
X133739047Y-66051780D01*
X133739047Y-66051780D02*
X133739047Y-65718447D01*
X133739047Y-65718447D02*
X133548571Y-65718447D01*
X134120000Y-65861304D02*
X134596190Y-65861304D01*
X134024762Y-66147019D02*
X134358095Y-65147019D01*
X134358095Y-65147019D02*
X134691428Y-66147019D01*
X135024762Y-66147019D02*
X135024762Y-65147019D01*
X135500952Y-66147019D02*
X135500952Y-65147019D01*
X135500952Y-65147019D02*
X136072380Y-66147019D01*
X136072380Y-66147019D02*
X136072380Y-65147019D01*
%TO.C,C16*%
X138289380Y-112542857D02*
X138337000Y-112590476D01*
X138337000Y-112590476D02*
X138384619Y-112733333D01*
X138384619Y-112733333D02*
X138384619Y-112828571D01*
X138384619Y-112828571D02*
X138337000Y-112971428D01*
X138337000Y-112971428D02*
X138241761Y-113066666D01*
X138241761Y-113066666D02*
X138146523Y-113114285D01*
X138146523Y-113114285D02*
X137956047Y-113161904D01*
X137956047Y-113161904D02*
X137813190Y-113161904D01*
X137813190Y-113161904D02*
X137622714Y-113114285D01*
X137622714Y-113114285D02*
X137527476Y-113066666D01*
X137527476Y-113066666D02*
X137432238Y-112971428D01*
X137432238Y-112971428D02*
X137384619Y-112828571D01*
X137384619Y-112828571D02*
X137384619Y-112733333D01*
X137384619Y-112733333D02*
X137432238Y-112590476D01*
X137432238Y-112590476D02*
X137479857Y-112542857D01*
X138384619Y-111590476D02*
X138384619Y-112161904D01*
X138384619Y-111876190D02*
X137384619Y-111876190D01*
X137384619Y-111876190D02*
X137527476Y-111971428D01*
X137527476Y-111971428D02*
X137622714Y-112066666D01*
X137622714Y-112066666D02*
X137670333Y-112161904D01*
X137384619Y-110733333D02*
X137384619Y-110923809D01*
X137384619Y-110923809D02*
X137432238Y-111019047D01*
X137432238Y-111019047D02*
X137479857Y-111066666D01*
X137479857Y-111066666D02*
X137622714Y-111161904D01*
X137622714Y-111161904D02*
X137813190Y-111209523D01*
X137813190Y-111209523D02*
X138194142Y-111209523D01*
X138194142Y-111209523D02*
X138289380Y-111161904D01*
X138289380Y-111161904D02*
X138337000Y-111114285D01*
X138337000Y-111114285D02*
X138384619Y-111019047D01*
X138384619Y-111019047D02*
X138384619Y-110828571D01*
X138384619Y-110828571D02*
X138337000Y-110733333D01*
X138337000Y-110733333D02*
X138289380Y-110685714D01*
X138289380Y-110685714D02*
X138194142Y-110638095D01*
X138194142Y-110638095D02*
X137956047Y-110638095D01*
X137956047Y-110638095D02*
X137860809Y-110685714D01*
X137860809Y-110685714D02*
X137813190Y-110733333D01*
X137813190Y-110733333D02*
X137765571Y-110828571D01*
X137765571Y-110828571D02*
X137765571Y-111019047D01*
X137765571Y-111019047D02*
X137813190Y-111114285D01*
X137813190Y-111114285D02*
X137860809Y-111161904D01*
X137860809Y-111161904D02*
X137956047Y-111209523D01*
%TO.C,C17*%
X141083380Y-112542857D02*
X141131000Y-112590476D01*
X141131000Y-112590476D02*
X141178619Y-112733333D01*
X141178619Y-112733333D02*
X141178619Y-112828571D01*
X141178619Y-112828571D02*
X141131000Y-112971428D01*
X141131000Y-112971428D02*
X141035761Y-113066666D01*
X141035761Y-113066666D02*
X140940523Y-113114285D01*
X140940523Y-113114285D02*
X140750047Y-113161904D01*
X140750047Y-113161904D02*
X140607190Y-113161904D01*
X140607190Y-113161904D02*
X140416714Y-113114285D01*
X140416714Y-113114285D02*
X140321476Y-113066666D01*
X140321476Y-113066666D02*
X140226238Y-112971428D01*
X140226238Y-112971428D02*
X140178619Y-112828571D01*
X140178619Y-112828571D02*
X140178619Y-112733333D01*
X140178619Y-112733333D02*
X140226238Y-112590476D01*
X140226238Y-112590476D02*
X140273857Y-112542857D01*
X141178619Y-111590476D02*
X141178619Y-112161904D01*
X141178619Y-111876190D02*
X140178619Y-111876190D01*
X140178619Y-111876190D02*
X140321476Y-111971428D01*
X140321476Y-111971428D02*
X140416714Y-112066666D01*
X140416714Y-112066666D02*
X140464333Y-112161904D01*
X140178619Y-111257142D02*
X140178619Y-110590476D01*
X140178619Y-110590476D02*
X141178619Y-111019047D01*
%TO.C,J5*%
X154606666Y-84503619D02*
X154606666Y-85217904D01*
X154606666Y-85217904D02*
X154559047Y-85360761D01*
X154559047Y-85360761D02*
X154463809Y-85456000D01*
X154463809Y-85456000D02*
X154320952Y-85503619D01*
X154320952Y-85503619D02*
X154225714Y-85503619D01*
X155559047Y-84503619D02*
X155082857Y-84503619D01*
X155082857Y-84503619D02*
X155035238Y-84979809D01*
X155035238Y-84979809D02*
X155082857Y-84932190D01*
X155082857Y-84932190D02*
X155178095Y-84884571D01*
X155178095Y-84884571D02*
X155416190Y-84884571D01*
X155416190Y-84884571D02*
X155511428Y-84932190D01*
X155511428Y-84932190D02*
X155559047Y-84979809D01*
X155559047Y-84979809D02*
X155606666Y-85075047D01*
X155606666Y-85075047D02*
X155606666Y-85313142D01*
X155606666Y-85313142D02*
X155559047Y-85408380D01*
X155559047Y-85408380D02*
X155511428Y-85456000D01*
X155511428Y-85456000D02*
X155416190Y-85503619D01*
X155416190Y-85503619D02*
X155178095Y-85503619D01*
X155178095Y-85503619D02*
X155082857Y-85456000D01*
X155082857Y-85456000D02*
X155035238Y-85408380D01*
X153476486Y-92156666D02*
X154238391Y-92156666D01*
X153857438Y-92537619D02*
X153857438Y-91775714D01*
X155190771Y-91537619D02*
X154714581Y-91537619D01*
X154714581Y-91537619D02*
X154666962Y-92013809D01*
X154666962Y-92013809D02*
X154714581Y-91966190D01*
X154714581Y-91966190D02*
X154809819Y-91918571D01*
X154809819Y-91918571D02*
X155047914Y-91918571D01*
X155047914Y-91918571D02*
X155143152Y-91966190D01*
X155143152Y-91966190D02*
X155190771Y-92013809D01*
X155190771Y-92013809D02*
X155238390Y-92109047D01*
X155238390Y-92109047D02*
X155238390Y-92347142D01*
X155238390Y-92347142D02*
X155190771Y-92442380D01*
X155190771Y-92442380D02*
X155143152Y-92490000D01*
X155143152Y-92490000D02*
X155047914Y-92537619D01*
X155047914Y-92537619D02*
X154809819Y-92537619D01*
X154809819Y-92537619D02*
X154714581Y-92490000D01*
X154714581Y-92490000D02*
X154666962Y-92442380D01*
X155524105Y-91537619D02*
X155857438Y-92537619D01*
X155857438Y-92537619D02*
X156190771Y-91537619D01*
X153914600Y-92858419D02*
X154105076Y-92858419D01*
X154105076Y-92858419D02*
X154200314Y-92906038D01*
X154200314Y-92906038D02*
X154295552Y-93001276D01*
X154295552Y-93001276D02*
X154343171Y-93191752D01*
X154343171Y-93191752D02*
X154343171Y-93525085D01*
X154343171Y-93525085D02*
X154295552Y-93715561D01*
X154295552Y-93715561D02*
X154200314Y-93810800D01*
X154200314Y-93810800D02*
X154105076Y-93858419D01*
X154105076Y-93858419D02*
X153914600Y-93858419D01*
X153914600Y-93858419D02*
X153819362Y-93810800D01*
X153819362Y-93810800D02*
X153724124Y-93715561D01*
X153724124Y-93715561D02*
X153676505Y-93525085D01*
X153676505Y-93525085D02*
X153676505Y-93191752D01*
X153676505Y-93191752D02*
X153724124Y-93001276D01*
X153724124Y-93001276D02*
X153819362Y-92906038D01*
X153819362Y-92906038D02*
X153914600Y-92858419D01*
X154771743Y-92858419D02*
X154771743Y-93667942D01*
X154771743Y-93667942D02*
X154819362Y-93763180D01*
X154819362Y-93763180D02*
X154866981Y-93810800D01*
X154866981Y-93810800D02*
X154962219Y-93858419D01*
X154962219Y-93858419D02*
X155152695Y-93858419D01*
X155152695Y-93858419D02*
X155247933Y-93810800D01*
X155247933Y-93810800D02*
X155295552Y-93763180D01*
X155295552Y-93763180D02*
X155343171Y-93667942D01*
X155343171Y-93667942D02*
X155343171Y-92858419D01*
X155676505Y-92858419D02*
X156247933Y-92858419D01*
X155962219Y-93858419D02*
X155962219Y-92858419D01*
%TO.C,R2*%
X130751583Y-65566719D02*
X130418250Y-65090528D01*
X130180155Y-65566719D02*
X130180155Y-64566719D01*
X130180155Y-64566719D02*
X130561107Y-64566719D01*
X130561107Y-64566719D02*
X130656345Y-64614338D01*
X130656345Y-64614338D02*
X130703964Y-64661957D01*
X130703964Y-64661957D02*
X130751583Y-64757195D01*
X130751583Y-64757195D02*
X130751583Y-64900052D01*
X130751583Y-64900052D02*
X130703964Y-64995290D01*
X130703964Y-64995290D02*
X130656345Y-65042909D01*
X130656345Y-65042909D02*
X130561107Y-65090528D01*
X130561107Y-65090528D02*
X130180155Y-65090528D01*
X131132536Y-64661957D02*
X131180155Y-64614338D01*
X131180155Y-64614338D02*
X131275393Y-64566719D01*
X131275393Y-64566719D02*
X131513488Y-64566719D01*
X131513488Y-64566719D02*
X131608726Y-64614338D01*
X131608726Y-64614338D02*
X131656345Y-64661957D01*
X131656345Y-64661957D02*
X131703964Y-64757195D01*
X131703964Y-64757195D02*
X131703964Y-64852433D01*
X131703964Y-64852433D02*
X131656345Y-64995290D01*
X131656345Y-64995290D02*
X131084917Y-65566719D01*
X131084917Y-65566719D02*
X131703964Y-65566719D01*
%TO.C,C29*%
X138289380Y-97556857D02*
X138337000Y-97604476D01*
X138337000Y-97604476D02*
X138384619Y-97747333D01*
X138384619Y-97747333D02*
X138384619Y-97842571D01*
X138384619Y-97842571D02*
X138337000Y-97985428D01*
X138337000Y-97985428D02*
X138241761Y-98080666D01*
X138241761Y-98080666D02*
X138146523Y-98128285D01*
X138146523Y-98128285D02*
X137956047Y-98175904D01*
X137956047Y-98175904D02*
X137813190Y-98175904D01*
X137813190Y-98175904D02*
X137622714Y-98128285D01*
X137622714Y-98128285D02*
X137527476Y-98080666D01*
X137527476Y-98080666D02*
X137432238Y-97985428D01*
X137432238Y-97985428D02*
X137384619Y-97842571D01*
X137384619Y-97842571D02*
X137384619Y-97747333D01*
X137384619Y-97747333D02*
X137432238Y-97604476D01*
X137432238Y-97604476D02*
X137479857Y-97556857D01*
X137479857Y-97175904D02*
X137432238Y-97128285D01*
X137432238Y-97128285D02*
X137384619Y-97033047D01*
X137384619Y-97033047D02*
X137384619Y-96794952D01*
X137384619Y-96794952D02*
X137432238Y-96699714D01*
X137432238Y-96699714D02*
X137479857Y-96652095D01*
X137479857Y-96652095D02*
X137575095Y-96604476D01*
X137575095Y-96604476D02*
X137670333Y-96604476D01*
X137670333Y-96604476D02*
X137813190Y-96652095D01*
X137813190Y-96652095D02*
X138384619Y-97223523D01*
X138384619Y-97223523D02*
X138384619Y-96604476D01*
X138384619Y-96128285D02*
X138384619Y-95937809D01*
X138384619Y-95937809D02*
X138337000Y-95842571D01*
X138337000Y-95842571D02*
X138289380Y-95794952D01*
X138289380Y-95794952D02*
X138146523Y-95699714D01*
X138146523Y-95699714D02*
X137956047Y-95652095D01*
X137956047Y-95652095D02*
X137575095Y-95652095D01*
X137575095Y-95652095D02*
X137479857Y-95699714D01*
X137479857Y-95699714D02*
X137432238Y-95747333D01*
X137432238Y-95747333D02*
X137384619Y-95842571D01*
X137384619Y-95842571D02*
X137384619Y-96033047D01*
X137384619Y-96033047D02*
X137432238Y-96128285D01*
X137432238Y-96128285D02*
X137479857Y-96175904D01*
X137479857Y-96175904D02*
X137575095Y-96223523D01*
X137575095Y-96223523D02*
X137813190Y-96223523D01*
X137813190Y-96223523D02*
X137908428Y-96175904D01*
X137908428Y-96175904D02*
X137956047Y-96128285D01*
X137956047Y-96128285D02*
X138003666Y-96033047D01*
X138003666Y-96033047D02*
X138003666Y-95842571D01*
X138003666Y-95842571D02*
X137956047Y-95747333D01*
X137956047Y-95747333D02*
X137908428Y-95699714D01*
X137908428Y-95699714D02*
X137813190Y-95652095D01*
%TO.C,R23*%
X153750619Y-99080857D02*
X153274428Y-99414190D01*
X153750619Y-99652285D02*
X152750619Y-99652285D01*
X152750619Y-99652285D02*
X152750619Y-99271333D01*
X152750619Y-99271333D02*
X152798238Y-99176095D01*
X152798238Y-99176095D02*
X152845857Y-99128476D01*
X152845857Y-99128476D02*
X152941095Y-99080857D01*
X152941095Y-99080857D02*
X153083952Y-99080857D01*
X153083952Y-99080857D02*
X153179190Y-99128476D01*
X153179190Y-99128476D02*
X153226809Y-99176095D01*
X153226809Y-99176095D02*
X153274428Y-99271333D01*
X153274428Y-99271333D02*
X153274428Y-99652285D01*
X152845857Y-98699904D02*
X152798238Y-98652285D01*
X152798238Y-98652285D02*
X152750619Y-98557047D01*
X152750619Y-98557047D02*
X152750619Y-98318952D01*
X152750619Y-98318952D02*
X152798238Y-98223714D01*
X152798238Y-98223714D02*
X152845857Y-98176095D01*
X152845857Y-98176095D02*
X152941095Y-98128476D01*
X152941095Y-98128476D02*
X153036333Y-98128476D01*
X153036333Y-98128476D02*
X153179190Y-98176095D01*
X153179190Y-98176095D02*
X153750619Y-98747523D01*
X153750619Y-98747523D02*
X153750619Y-98128476D01*
X152750619Y-97795142D02*
X152750619Y-97176095D01*
X152750619Y-97176095D02*
X153131571Y-97509428D01*
X153131571Y-97509428D02*
X153131571Y-97366571D01*
X153131571Y-97366571D02*
X153179190Y-97271333D01*
X153179190Y-97271333D02*
X153226809Y-97223714D01*
X153226809Y-97223714D02*
X153322047Y-97176095D01*
X153322047Y-97176095D02*
X153560142Y-97176095D01*
X153560142Y-97176095D02*
X153655380Y-97223714D01*
X153655380Y-97223714D02*
X153703000Y-97271333D01*
X153703000Y-97271333D02*
X153750619Y-97366571D01*
X153750619Y-97366571D02*
X153750619Y-97652285D01*
X153750619Y-97652285D02*
X153703000Y-97747523D01*
X153703000Y-97747523D02*
X153655380Y-97795142D01*
%TO.C,R9*%
X140182619Y-91860666D02*
X139706428Y-92193999D01*
X140182619Y-92432094D02*
X139182619Y-92432094D01*
X139182619Y-92432094D02*
X139182619Y-92051142D01*
X139182619Y-92051142D02*
X139230238Y-91955904D01*
X139230238Y-91955904D02*
X139277857Y-91908285D01*
X139277857Y-91908285D02*
X139373095Y-91860666D01*
X139373095Y-91860666D02*
X139515952Y-91860666D01*
X139515952Y-91860666D02*
X139611190Y-91908285D01*
X139611190Y-91908285D02*
X139658809Y-91955904D01*
X139658809Y-91955904D02*
X139706428Y-92051142D01*
X139706428Y-92051142D02*
X139706428Y-92432094D01*
X140182619Y-91384475D02*
X140182619Y-91193999D01*
X140182619Y-91193999D02*
X140135000Y-91098761D01*
X140135000Y-91098761D02*
X140087380Y-91051142D01*
X140087380Y-91051142D02*
X139944523Y-90955904D01*
X139944523Y-90955904D02*
X139754047Y-90908285D01*
X139754047Y-90908285D02*
X139373095Y-90908285D01*
X139373095Y-90908285D02*
X139277857Y-90955904D01*
X139277857Y-90955904D02*
X139230238Y-91003523D01*
X139230238Y-91003523D02*
X139182619Y-91098761D01*
X139182619Y-91098761D02*
X139182619Y-91289237D01*
X139182619Y-91289237D02*
X139230238Y-91384475D01*
X139230238Y-91384475D02*
X139277857Y-91432094D01*
X139277857Y-91432094D02*
X139373095Y-91479713D01*
X139373095Y-91479713D02*
X139611190Y-91479713D01*
X139611190Y-91479713D02*
X139706428Y-91432094D01*
X139706428Y-91432094D02*
X139754047Y-91384475D01*
X139754047Y-91384475D02*
X139801666Y-91289237D01*
X139801666Y-91289237D02*
X139801666Y-91098761D01*
X139801666Y-91098761D02*
X139754047Y-91003523D01*
X139754047Y-91003523D02*
X139706428Y-90955904D01*
X139706428Y-90955904D02*
X139611190Y-90908285D01*
%TO.C,R1*%
X148274833Y-70439619D02*
X147941500Y-69963428D01*
X147703405Y-70439619D02*
X147703405Y-69439619D01*
X147703405Y-69439619D02*
X148084357Y-69439619D01*
X148084357Y-69439619D02*
X148179595Y-69487238D01*
X148179595Y-69487238D02*
X148227214Y-69534857D01*
X148227214Y-69534857D02*
X148274833Y-69630095D01*
X148274833Y-69630095D02*
X148274833Y-69772952D01*
X148274833Y-69772952D02*
X148227214Y-69868190D01*
X148227214Y-69868190D02*
X148179595Y-69915809D01*
X148179595Y-69915809D02*
X148084357Y-69963428D01*
X148084357Y-69963428D02*
X147703405Y-69963428D01*
X149227214Y-70439619D02*
X148655786Y-70439619D01*
X148941500Y-70439619D02*
X148941500Y-69439619D01*
X148941500Y-69439619D02*
X148846262Y-69582476D01*
X148846262Y-69582476D02*
X148751024Y-69677714D01*
X148751024Y-69677714D02*
X148655786Y-69725333D01*
%TO.C,C4*%
X145121333Y-94347380D02*
X145073714Y-94395000D01*
X145073714Y-94395000D02*
X144930857Y-94442619D01*
X144930857Y-94442619D02*
X144835619Y-94442619D01*
X144835619Y-94442619D02*
X144692762Y-94395000D01*
X144692762Y-94395000D02*
X144597524Y-94299761D01*
X144597524Y-94299761D02*
X144549905Y-94204523D01*
X144549905Y-94204523D02*
X144502286Y-94014047D01*
X144502286Y-94014047D02*
X144502286Y-93871190D01*
X144502286Y-93871190D02*
X144549905Y-93680714D01*
X144549905Y-93680714D02*
X144597524Y-93585476D01*
X144597524Y-93585476D02*
X144692762Y-93490238D01*
X144692762Y-93490238D02*
X144835619Y-93442619D01*
X144835619Y-93442619D02*
X144930857Y-93442619D01*
X144930857Y-93442619D02*
X145073714Y-93490238D01*
X145073714Y-93490238D02*
X145121333Y-93537857D01*
X145978476Y-93775952D02*
X145978476Y-94442619D01*
X145740381Y-93395000D02*
X145502286Y-94109285D01*
X145502286Y-94109285D02*
X146121333Y-94109285D01*
%TO.C,J1*%
X128627429Y-75138619D02*
X128627429Y-74138619D01*
X129103619Y-75138619D02*
X129103619Y-74138619D01*
X129103619Y-74138619D02*
X129675047Y-75138619D01*
X129675047Y-75138619D02*
X129675047Y-74138619D01*
X130151238Y-75138619D02*
X130151238Y-74138619D01*
X130151238Y-74138619D02*
X130532190Y-74138619D01*
X130532190Y-74138619D02*
X130627428Y-74186238D01*
X130627428Y-74186238D02*
X130675047Y-74233857D01*
X130675047Y-74233857D02*
X130722666Y-74329095D01*
X130722666Y-74329095D02*
X130722666Y-74471952D01*
X130722666Y-74471952D02*
X130675047Y-74567190D01*
X130675047Y-74567190D02*
X130627428Y-74614809D01*
X130627428Y-74614809D02*
X130532190Y-74662428D01*
X130532190Y-74662428D02*
X130151238Y-74662428D01*
X131151238Y-74138619D02*
X131151238Y-74948142D01*
X131151238Y-74948142D02*
X131198857Y-75043380D01*
X131198857Y-75043380D02*
X131246476Y-75091000D01*
X131246476Y-75091000D02*
X131341714Y-75138619D01*
X131341714Y-75138619D02*
X131532190Y-75138619D01*
X131532190Y-75138619D02*
X131627428Y-75091000D01*
X131627428Y-75091000D02*
X131675047Y-75043380D01*
X131675047Y-75043380D02*
X131722666Y-74948142D01*
X131722666Y-74948142D02*
X131722666Y-74138619D01*
X132056000Y-74138619D02*
X132627428Y-74138619D01*
X132341714Y-75138619D02*
X132341714Y-74138619D01*
%TO.C,R6*%
X155767833Y-79964619D02*
X155434500Y-79488428D01*
X155196405Y-79964619D02*
X155196405Y-78964619D01*
X155196405Y-78964619D02*
X155577357Y-78964619D01*
X155577357Y-78964619D02*
X155672595Y-79012238D01*
X155672595Y-79012238D02*
X155720214Y-79059857D01*
X155720214Y-79059857D02*
X155767833Y-79155095D01*
X155767833Y-79155095D02*
X155767833Y-79297952D01*
X155767833Y-79297952D02*
X155720214Y-79393190D01*
X155720214Y-79393190D02*
X155672595Y-79440809D01*
X155672595Y-79440809D02*
X155577357Y-79488428D01*
X155577357Y-79488428D02*
X155196405Y-79488428D01*
X156624976Y-78964619D02*
X156434500Y-78964619D01*
X156434500Y-78964619D02*
X156339262Y-79012238D01*
X156339262Y-79012238D02*
X156291643Y-79059857D01*
X156291643Y-79059857D02*
X156196405Y-79202714D01*
X156196405Y-79202714D02*
X156148786Y-79393190D01*
X156148786Y-79393190D02*
X156148786Y-79774142D01*
X156148786Y-79774142D02*
X156196405Y-79869380D01*
X156196405Y-79869380D02*
X156244024Y-79917000D01*
X156244024Y-79917000D02*
X156339262Y-79964619D01*
X156339262Y-79964619D02*
X156529738Y-79964619D01*
X156529738Y-79964619D02*
X156624976Y-79917000D01*
X156624976Y-79917000D02*
X156672595Y-79869380D01*
X156672595Y-79869380D02*
X156720214Y-79774142D01*
X156720214Y-79774142D02*
X156720214Y-79536047D01*
X156720214Y-79536047D02*
X156672595Y-79440809D01*
X156672595Y-79440809D02*
X156624976Y-79393190D01*
X156624976Y-79393190D02*
X156529738Y-79345571D01*
X156529738Y-79345571D02*
X156339262Y-79345571D01*
X156339262Y-79345571D02*
X156244024Y-79393190D01*
X156244024Y-79393190D02*
X156196405Y-79440809D01*
X156196405Y-79440809D02*
X156148786Y-79536047D01*
%TO.C,C6*%
X151771380Y-91860666D02*
X151819000Y-91908285D01*
X151819000Y-91908285D02*
X151866619Y-92051142D01*
X151866619Y-92051142D02*
X151866619Y-92146380D01*
X151866619Y-92146380D02*
X151819000Y-92289237D01*
X151819000Y-92289237D02*
X151723761Y-92384475D01*
X151723761Y-92384475D02*
X151628523Y-92432094D01*
X151628523Y-92432094D02*
X151438047Y-92479713D01*
X151438047Y-92479713D02*
X151295190Y-92479713D01*
X151295190Y-92479713D02*
X151104714Y-92432094D01*
X151104714Y-92432094D02*
X151009476Y-92384475D01*
X151009476Y-92384475D02*
X150914238Y-92289237D01*
X150914238Y-92289237D02*
X150866619Y-92146380D01*
X150866619Y-92146380D02*
X150866619Y-92051142D01*
X150866619Y-92051142D02*
X150914238Y-91908285D01*
X150914238Y-91908285D02*
X150961857Y-91860666D01*
X150866619Y-91003523D02*
X150866619Y-91193999D01*
X150866619Y-91193999D02*
X150914238Y-91289237D01*
X150914238Y-91289237D02*
X150961857Y-91336856D01*
X150961857Y-91336856D02*
X151104714Y-91432094D01*
X151104714Y-91432094D02*
X151295190Y-91479713D01*
X151295190Y-91479713D02*
X151676142Y-91479713D01*
X151676142Y-91479713D02*
X151771380Y-91432094D01*
X151771380Y-91432094D02*
X151819000Y-91384475D01*
X151819000Y-91384475D02*
X151866619Y-91289237D01*
X151866619Y-91289237D02*
X151866619Y-91098761D01*
X151866619Y-91098761D02*
X151819000Y-91003523D01*
X151819000Y-91003523D02*
X151771380Y-90955904D01*
X151771380Y-90955904D02*
X151676142Y-90908285D01*
X151676142Y-90908285D02*
X151438047Y-90908285D01*
X151438047Y-90908285D02*
X151342809Y-90955904D01*
X151342809Y-90955904D02*
X151295190Y-91003523D01*
X151295190Y-91003523D02*
X151247571Y-91098761D01*
X151247571Y-91098761D02*
X151247571Y-91289237D01*
X151247571Y-91289237D02*
X151295190Y-91384475D01*
X151295190Y-91384475D02*
X151342809Y-91432094D01*
X151342809Y-91432094D02*
X151438047Y-91479713D01*
%TO.C,C20*%
X141184980Y-97658457D02*
X141232600Y-97706076D01*
X141232600Y-97706076D02*
X141280219Y-97848933D01*
X141280219Y-97848933D02*
X141280219Y-97944171D01*
X141280219Y-97944171D02*
X141232600Y-98087028D01*
X141232600Y-98087028D02*
X141137361Y-98182266D01*
X141137361Y-98182266D02*
X141042123Y-98229885D01*
X141042123Y-98229885D02*
X140851647Y-98277504D01*
X140851647Y-98277504D02*
X140708790Y-98277504D01*
X140708790Y-98277504D02*
X140518314Y-98229885D01*
X140518314Y-98229885D02*
X140423076Y-98182266D01*
X140423076Y-98182266D02*
X140327838Y-98087028D01*
X140327838Y-98087028D02*
X140280219Y-97944171D01*
X140280219Y-97944171D02*
X140280219Y-97848933D01*
X140280219Y-97848933D02*
X140327838Y-97706076D01*
X140327838Y-97706076D02*
X140375457Y-97658457D01*
X140375457Y-97277504D02*
X140327838Y-97229885D01*
X140327838Y-97229885D02*
X140280219Y-97134647D01*
X140280219Y-97134647D02*
X140280219Y-96896552D01*
X140280219Y-96896552D02*
X140327838Y-96801314D01*
X140327838Y-96801314D02*
X140375457Y-96753695D01*
X140375457Y-96753695D02*
X140470695Y-96706076D01*
X140470695Y-96706076D02*
X140565933Y-96706076D01*
X140565933Y-96706076D02*
X140708790Y-96753695D01*
X140708790Y-96753695D02*
X141280219Y-97325123D01*
X141280219Y-97325123D02*
X141280219Y-96706076D01*
X140280219Y-96087028D02*
X140280219Y-95991790D01*
X140280219Y-95991790D02*
X140327838Y-95896552D01*
X140327838Y-95896552D02*
X140375457Y-95848933D01*
X140375457Y-95848933D02*
X140470695Y-95801314D01*
X140470695Y-95801314D02*
X140661171Y-95753695D01*
X140661171Y-95753695D02*
X140899266Y-95753695D01*
X140899266Y-95753695D02*
X141089742Y-95801314D01*
X141089742Y-95801314D02*
X141184980Y-95848933D01*
X141184980Y-95848933D02*
X141232600Y-95896552D01*
X141232600Y-95896552D02*
X141280219Y-95991790D01*
X141280219Y-95991790D02*
X141280219Y-96087028D01*
X141280219Y-96087028D02*
X141232600Y-96182266D01*
X141232600Y-96182266D02*
X141184980Y-96229885D01*
X141184980Y-96229885D02*
X141089742Y-96277504D01*
X141089742Y-96277504D02*
X140899266Y-96325123D01*
X140899266Y-96325123D02*
X140661171Y-96325123D01*
X140661171Y-96325123D02*
X140470695Y-96277504D01*
X140470695Y-96277504D02*
X140375457Y-96229885D01*
X140375457Y-96229885D02*
X140327838Y-96182266D01*
X140327838Y-96182266D02*
X140280219Y-96087028D01*
%TO.C,R11*%
X137927419Y-92819457D02*
X137451228Y-93152790D01*
X137927419Y-93390885D02*
X136927419Y-93390885D01*
X136927419Y-93390885D02*
X136927419Y-93009933D01*
X136927419Y-93009933D02*
X136975038Y-92914695D01*
X136975038Y-92914695D02*
X137022657Y-92867076D01*
X137022657Y-92867076D02*
X137117895Y-92819457D01*
X137117895Y-92819457D02*
X137260752Y-92819457D01*
X137260752Y-92819457D02*
X137355990Y-92867076D01*
X137355990Y-92867076D02*
X137403609Y-92914695D01*
X137403609Y-92914695D02*
X137451228Y-93009933D01*
X137451228Y-93009933D02*
X137451228Y-93390885D01*
X137927419Y-91867076D02*
X137927419Y-92438504D01*
X137927419Y-92152790D02*
X136927419Y-92152790D01*
X136927419Y-92152790D02*
X137070276Y-92248028D01*
X137070276Y-92248028D02*
X137165514Y-92343266D01*
X137165514Y-92343266D02*
X137213133Y-92438504D01*
X137927419Y-90914695D02*
X137927419Y-91486123D01*
X137927419Y-91200409D02*
X136927419Y-91200409D01*
X136927419Y-91200409D02*
X137070276Y-91295647D01*
X137070276Y-91295647D02*
X137165514Y-91390885D01*
X137165514Y-91390885D02*
X137213133Y-91486123D01*
%TO.C,C30*%
X143877380Y-112542857D02*
X143925000Y-112590476D01*
X143925000Y-112590476D02*
X143972619Y-112733333D01*
X143972619Y-112733333D02*
X143972619Y-112828571D01*
X143972619Y-112828571D02*
X143925000Y-112971428D01*
X143925000Y-112971428D02*
X143829761Y-113066666D01*
X143829761Y-113066666D02*
X143734523Y-113114285D01*
X143734523Y-113114285D02*
X143544047Y-113161904D01*
X143544047Y-113161904D02*
X143401190Y-113161904D01*
X143401190Y-113161904D02*
X143210714Y-113114285D01*
X143210714Y-113114285D02*
X143115476Y-113066666D01*
X143115476Y-113066666D02*
X143020238Y-112971428D01*
X143020238Y-112971428D02*
X142972619Y-112828571D01*
X142972619Y-112828571D02*
X142972619Y-112733333D01*
X142972619Y-112733333D02*
X143020238Y-112590476D01*
X143020238Y-112590476D02*
X143067857Y-112542857D01*
X142972619Y-112209523D02*
X142972619Y-111590476D01*
X142972619Y-111590476D02*
X143353571Y-111923809D01*
X143353571Y-111923809D02*
X143353571Y-111780952D01*
X143353571Y-111780952D02*
X143401190Y-111685714D01*
X143401190Y-111685714D02*
X143448809Y-111638095D01*
X143448809Y-111638095D02*
X143544047Y-111590476D01*
X143544047Y-111590476D02*
X143782142Y-111590476D01*
X143782142Y-111590476D02*
X143877380Y-111638095D01*
X143877380Y-111638095D02*
X143925000Y-111685714D01*
X143925000Y-111685714D02*
X143972619Y-111780952D01*
X143972619Y-111780952D02*
X143972619Y-112066666D01*
X143972619Y-112066666D02*
X143925000Y-112161904D01*
X143925000Y-112161904D02*
X143877380Y-112209523D01*
X142972619Y-110971428D02*
X142972619Y-110876190D01*
X142972619Y-110876190D02*
X143020238Y-110780952D01*
X143020238Y-110780952D02*
X143067857Y-110733333D01*
X143067857Y-110733333D02*
X143163095Y-110685714D01*
X143163095Y-110685714D02*
X143353571Y-110638095D01*
X143353571Y-110638095D02*
X143591666Y-110638095D01*
X143591666Y-110638095D02*
X143782142Y-110685714D01*
X143782142Y-110685714D02*
X143877380Y-110733333D01*
X143877380Y-110733333D02*
X143925000Y-110780952D01*
X143925000Y-110780952D02*
X143972619Y-110876190D01*
X143972619Y-110876190D02*
X143972619Y-110971428D01*
X143972619Y-110971428D02*
X143925000Y-111066666D01*
X143925000Y-111066666D02*
X143877380Y-111114285D01*
X143877380Y-111114285D02*
X143782142Y-111161904D01*
X143782142Y-111161904D02*
X143591666Y-111209523D01*
X143591666Y-111209523D02*
X143353571Y-111209523D01*
X143353571Y-111209523D02*
X143163095Y-111161904D01*
X143163095Y-111161904D02*
X143067857Y-111114285D01*
X143067857Y-111114285D02*
X143020238Y-111066666D01*
X143020238Y-111066666D02*
X142972619Y-110971428D01*
%TO.C,C8*%
X144761083Y-82663380D02*
X144713464Y-82711000D01*
X144713464Y-82711000D02*
X144570607Y-82758619D01*
X144570607Y-82758619D02*
X144475369Y-82758619D01*
X144475369Y-82758619D02*
X144332512Y-82711000D01*
X144332512Y-82711000D02*
X144237274Y-82615761D01*
X144237274Y-82615761D02*
X144189655Y-82520523D01*
X144189655Y-82520523D02*
X144142036Y-82330047D01*
X144142036Y-82330047D02*
X144142036Y-82187190D01*
X144142036Y-82187190D02*
X144189655Y-81996714D01*
X144189655Y-81996714D02*
X144237274Y-81901476D01*
X144237274Y-81901476D02*
X144332512Y-81806238D01*
X144332512Y-81806238D02*
X144475369Y-81758619D01*
X144475369Y-81758619D02*
X144570607Y-81758619D01*
X144570607Y-81758619D02*
X144713464Y-81806238D01*
X144713464Y-81806238D02*
X144761083Y-81853857D01*
X145332512Y-82187190D02*
X145237274Y-82139571D01*
X145237274Y-82139571D02*
X145189655Y-82091952D01*
X145189655Y-82091952D02*
X145142036Y-81996714D01*
X145142036Y-81996714D02*
X145142036Y-81949095D01*
X145142036Y-81949095D02*
X145189655Y-81853857D01*
X145189655Y-81853857D02*
X145237274Y-81806238D01*
X145237274Y-81806238D02*
X145332512Y-81758619D01*
X145332512Y-81758619D02*
X145522988Y-81758619D01*
X145522988Y-81758619D02*
X145618226Y-81806238D01*
X145618226Y-81806238D02*
X145665845Y-81853857D01*
X145665845Y-81853857D02*
X145713464Y-81949095D01*
X145713464Y-81949095D02*
X145713464Y-81996714D01*
X145713464Y-81996714D02*
X145665845Y-82091952D01*
X145665845Y-82091952D02*
X145618226Y-82139571D01*
X145618226Y-82139571D02*
X145522988Y-82187190D01*
X145522988Y-82187190D02*
X145332512Y-82187190D01*
X145332512Y-82187190D02*
X145237274Y-82234809D01*
X145237274Y-82234809D02*
X145189655Y-82282428D01*
X145189655Y-82282428D02*
X145142036Y-82377666D01*
X145142036Y-82377666D02*
X145142036Y-82568142D01*
X145142036Y-82568142D02*
X145189655Y-82663380D01*
X145189655Y-82663380D02*
X145237274Y-82711000D01*
X145237274Y-82711000D02*
X145332512Y-82758619D01*
X145332512Y-82758619D02*
X145522988Y-82758619D01*
X145522988Y-82758619D02*
X145618226Y-82711000D01*
X145618226Y-82711000D02*
X145665845Y-82663380D01*
X145665845Y-82663380D02*
X145713464Y-82568142D01*
X145713464Y-82568142D02*
X145713464Y-82377666D01*
X145713464Y-82377666D02*
X145665845Y-82282428D01*
X145665845Y-82282428D02*
X145618226Y-82234809D01*
X145618226Y-82234809D02*
X145522988Y-82187190D01*
%TO.C,J3*%
X127683619Y-109781933D02*
X128397904Y-109781933D01*
X128397904Y-109781933D02*
X128540761Y-109829552D01*
X128540761Y-109829552D02*
X128636000Y-109924790D01*
X128636000Y-109924790D02*
X128683619Y-110067647D01*
X128683619Y-110067647D02*
X128683619Y-110162885D01*
X127683619Y-109400980D02*
X127683619Y-108781933D01*
X127683619Y-108781933D02*
X128064571Y-109115266D01*
X128064571Y-109115266D02*
X128064571Y-108972409D01*
X128064571Y-108972409D02*
X128112190Y-108877171D01*
X128112190Y-108877171D02*
X128159809Y-108829552D01*
X128159809Y-108829552D02*
X128255047Y-108781933D01*
X128255047Y-108781933D02*
X128493142Y-108781933D01*
X128493142Y-108781933D02*
X128588380Y-108829552D01*
X128588380Y-108829552D02*
X128636000Y-108877171D01*
X128636000Y-108877171D02*
X128683619Y-108972409D01*
X128683619Y-108972409D02*
X128683619Y-109258123D01*
X128683619Y-109258123D02*
X128636000Y-109353361D01*
X128636000Y-109353361D02*
X128588380Y-109400980D01*
X128855895Y-112197219D02*
X129046371Y-112197219D01*
X129046371Y-112197219D02*
X129141609Y-112149600D01*
X129141609Y-112149600D02*
X129189228Y-112101980D01*
X129189228Y-112101980D02*
X129284466Y-111959123D01*
X129284466Y-111959123D02*
X129332085Y-111768647D01*
X129332085Y-111768647D02*
X129332085Y-111387695D01*
X129332085Y-111387695D02*
X129284466Y-111292457D01*
X129284466Y-111292457D02*
X129236847Y-111244838D01*
X129236847Y-111244838D02*
X129141609Y-111197219D01*
X129141609Y-111197219D02*
X128951133Y-111197219D01*
X128951133Y-111197219D02*
X128855895Y-111244838D01*
X128855895Y-111244838D02*
X128808276Y-111292457D01*
X128808276Y-111292457D02*
X128760657Y-111387695D01*
X128760657Y-111387695D02*
X128760657Y-111625790D01*
X128760657Y-111625790D02*
X128808276Y-111721028D01*
X128808276Y-111721028D02*
X128855895Y-111768647D01*
X128855895Y-111768647D02*
X128951133Y-111816266D01*
X128951133Y-111816266D02*
X129141609Y-111816266D01*
X129141609Y-111816266D02*
X129236847Y-111768647D01*
X129236847Y-111768647D02*
X129284466Y-111721028D01*
X129284466Y-111721028D02*
X129332085Y-111625790D01*
X129617800Y-111197219D02*
X129951133Y-112197219D01*
X129951133Y-112197219D02*
X130284466Y-111197219D01*
X130617800Y-112197219D02*
X130617800Y-111197219D01*
X130617800Y-111197219D02*
X130855895Y-111197219D01*
X130855895Y-111197219D02*
X130998752Y-111244838D01*
X130998752Y-111244838D02*
X131093990Y-111340076D01*
X131093990Y-111340076D02*
X131141609Y-111435314D01*
X131141609Y-111435314D02*
X131189228Y-111625790D01*
X131189228Y-111625790D02*
X131189228Y-111768647D01*
X131189228Y-111768647D02*
X131141609Y-111959123D01*
X131141609Y-111959123D02*
X131093990Y-112054361D01*
X131093990Y-112054361D02*
X130998752Y-112149600D01*
X130998752Y-112149600D02*
X130855895Y-112197219D01*
X130855895Y-112197219D02*
X130617800Y-112197219D01*
X132189228Y-112101980D02*
X132141609Y-112149600D01*
X132141609Y-112149600D02*
X131998752Y-112197219D01*
X131998752Y-112197219D02*
X131903514Y-112197219D01*
X131903514Y-112197219D02*
X131760657Y-112149600D01*
X131760657Y-112149600D02*
X131665419Y-112054361D01*
X131665419Y-112054361D02*
X131617800Y-111959123D01*
X131617800Y-111959123D02*
X131570181Y-111768647D01*
X131570181Y-111768647D02*
X131570181Y-111625790D01*
X131570181Y-111625790D02*
X131617800Y-111435314D01*
X131617800Y-111435314D02*
X131665419Y-111340076D01*
X131665419Y-111340076D02*
X131760657Y-111244838D01*
X131760657Y-111244838D02*
X131903514Y-111197219D01*
X131903514Y-111197219D02*
X131998752Y-111197219D01*
X131998752Y-111197219D02*
X132141609Y-111244838D01*
X132141609Y-111244838D02*
X132189228Y-111292457D01*
X133379705Y-112197219D02*
X133379705Y-111197219D01*
X133855895Y-112197219D02*
X133855895Y-111197219D01*
X133855895Y-111197219D02*
X134427323Y-112197219D01*
X134427323Y-112197219D02*
X134427323Y-111197219D01*
%TO.C,J4*%
X127506562Y-79913866D02*
X128268467Y-79913866D01*
X129220847Y-79294819D02*
X128744657Y-79294819D01*
X128744657Y-79294819D02*
X128697038Y-79771009D01*
X128697038Y-79771009D02*
X128744657Y-79723390D01*
X128744657Y-79723390D02*
X128839895Y-79675771D01*
X128839895Y-79675771D02*
X129077990Y-79675771D01*
X129077990Y-79675771D02*
X129173228Y-79723390D01*
X129173228Y-79723390D02*
X129220847Y-79771009D01*
X129220847Y-79771009D02*
X129268466Y-79866247D01*
X129268466Y-79866247D02*
X129268466Y-80104342D01*
X129268466Y-80104342D02*
X129220847Y-80199580D01*
X129220847Y-80199580D02*
X129173228Y-80247200D01*
X129173228Y-80247200D02*
X129077990Y-80294819D01*
X129077990Y-80294819D02*
X128839895Y-80294819D01*
X128839895Y-80294819D02*
X128744657Y-80247200D01*
X128744657Y-80247200D02*
X128697038Y-80199580D01*
X129554181Y-79294819D02*
X129887514Y-80294819D01*
X129887514Y-80294819D02*
X130220847Y-79294819D01*
X131506562Y-79294819D02*
X131697038Y-79294819D01*
X131697038Y-79294819D02*
X131792276Y-79342438D01*
X131792276Y-79342438D02*
X131887514Y-79437676D01*
X131887514Y-79437676D02*
X131935133Y-79628152D01*
X131935133Y-79628152D02*
X131935133Y-79961485D01*
X131935133Y-79961485D02*
X131887514Y-80151961D01*
X131887514Y-80151961D02*
X131792276Y-80247200D01*
X131792276Y-80247200D02*
X131697038Y-80294819D01*
X131697038Y-80294819D02*
X131506562Y-80294819D01*
X131506562Y-80294819D02*
X131411324Y-80247200D01*
X131411324Y-80247200D02*
X131316086Y-80151961D01*
X131316086Y-80151961D02*
X131268467Y-79961485D01*
X131268467Y-79961485D02*
X131268467Y-79628152D01*
X131268467Y-79628152D02*
X131316086Y-79437676D01*
X131316086Y-79437676D02*
X131411324Y-79342438D01*
X131411324Y-79342438D02*
X131506562Y-79294819D01*
X132363705Y-79294819D02*
X132363705Y-80104342D01*
X132363705Y-80104342D02*
X132411324Y-80199580D01*
X132411324Y-80199580D02*
X132458943Y-80247200D01*
X132458943Y-80247200D02*
X132554181Y-80294819D01*
X132554181Y-80294819D02*
X132744657Y-80294819D01*
X132744657Y-80294819D02*
X132839895Y-80247200D01*
X132839895Y-80247200D02*
X132887514Y-80199580D01*
X132887514Y-80199580D02*
X132935133Y-80104342D01*
X132935133Y-80104342D02*
X132935133Y-79294819D01*
X133268467Y-79294819D02*
X133839895Y-79294819D01*
X133554181Y-80294819D02*
X133554181Y-79294819D01*
%TO.C,R8*%
X147294619Y-91860666D02*
X146818428Y-92193999D01*
X147294619Y-92432094D02*
X146294619Y-92432094D01*
X146294619Y-92432094D02*
X146294619Y-92051142D01*
X146294619Y-92051142D02*
X146342238Y-91955904D01*
X146342238Y-91955904D02*
X146389857Y-91908285D01*
X146389857Y-91908285D02*
X146485095Y-91860666D01*
X146485095Y-91860666D02*
X146627952Y-91860666D01*
X146627952Y-91860666D02*
X146723190Y-91908285D01*
X146723190Y-91908285D02*
X146770809Y-91955904D01*
X146770809Y-91955904D02*
X146818428Y-92051142D01*
X146818428Y-92051142D02*
X146818428Y-92432094D01*
X146723190Y-91289237D02*
X146675571Y-91384475D01*
X146675571Y-91384475D02*
X146627952Y-91432094D01*
X146627952Y-91432094D02*
X146532714Y-91479713D01*
X146532714Y-91479713D02*
X146485095Y-91479713D01*
X146485095Y-91479713D02*
X146389857Y-91432094D01*
X146389857Y-91432094D02*
X146342238Y-91384475D01*
X146342238Y-91384475D02*
X146294619Y-91289237D01*
X146294619Y-91289237D02*
X146294619Y-91098761D01*
X146294619Y-91098761D02*
X146342238Y-91003523D01*
X146342238Y-91003523D02*
X146389857Y-90955904D01*
X146389857Y-90955904D02*
X146485095Y-90908285D01*
X146485095Y-90908285D02*
X146532714Y-90908285D01*
X146532714Y-90908285D02*
X146627952Y-90955904D01*
X146627952Y-90955904D02*
X146675571Y-91003523D01*
X146675571Y-91003523D02*
X146723190Y-91098761D01*
X146723190Y-91098761D02*
X146723190Y-91289237D01*
X146723190Y-91289237D02*
X146770809Y-91384475D01*
X146770809Y-91384475D02*
X146818428Y-91432094D01*
X146818428Y-91432094D02*
X146913666Y-91479713D01*
X146913666Y-91479713D02*
X147104142Y-91479713D01*
X147104142Y-91479713D02*
X147199380Y-91432094D01*
X147199380Y-91432094D02*
X147247000Y-91384475D01*
X147247000Y-91384475D02*
X147294619Y-91289237D01*
X147294619Y-91289237D02*
X147294619Y-91098761D01*
X147294619Y-91098761D02*
X147247000Y-91003523D01*
X147247000Y-91003523D02*
X147199380Y-90955904D01*
X147199380Y-90955904D02*
X147104142Y-90908285D01*
X147104142Y-90908285D02*
X146913666Y-90908285D01*
X146913666Y-90908285D02*
X146818428Y-90955904D01*
X146818428Y-90955904D02*
X146770809Y-91003523D01*
X146770809Y-91003523D02*
X146723190Y-91098761D01*
%TO.C,L1*%
X128052533Y-107650619D02*
X127576343Y-107650619D01*
X127576343Y-107650619D02*
X127576343Y-106650619D01*
X128909676Y-107650619D02*
X128338248Y-107650619D01*
X128623962Y-107650619D02*
X128623962Y-106650619D01*
X128623962Y-106650619D02*
X128528724Y-106793476D01*
X128528724Y-106793476D02*
X128433486Y-106888714D01*
X128433486Y-106888714D02*
X128338248Y-106936333D01*
%TO.C,C18*%
X150995142Y-105790380D02*
X150947523Y-105838000D01*
X150947523Y-105838000D02*
X150804666Y-105885619D01*
X150804666Y-105885619D02*
X150709428Y-105885619D01*
X150709428Y-105885619D02*
X150566571Y-105838000D01*
X150566571Y-105838000D02*
X150471333Y-105742761D01*
X150471333Y-105742761D02*
X150423714Y-105647523D01*
X150423714Y-105647523D02*
X150376095Y-105457047D01*
X150376095Y-105457047D02*
X150376095Y-105314190D01*
X150376095Y-105314190D02*
X150423714Y-105123714D01*
X150423714Y-105123714D02*
X150471333Y-105028476D01*
X150471333Y-105028476D02*
X150566571Y-104933238D01*
X150566571Y-104933238D02*
X150709428Y-104885619D01*
X150709428Y-104885619D02*
X150804666Y-104885619D01*
X150804666Y-104885619D02*
X150947523Y-104933238D01*
X150947523Y-104933238D02*
X150995142Y-104980857D01*
X151947523Y-105885619D02*
X151376095Y-105885619D01*
X151661809Y-105885619D02*
X151661809Y-104885619D01*
X151661809Y-104885619D02*
X151566571Y-105028476D01*
X151566571Y-105028476D02*
X151471333Y-105123714D01*
X151471333Y-105123714D02*
X151376095Y-105171333D01*
X152518952Y-105314190D02*
X152423714Y-105266571D01*
X152423714Y-105266571D02*
X152376095Y-105218952D01*
X152376095Y-105218952D02*
X152328476Y-105123714D01*
X152328476Y-105123714D02*
X152328476Y-105076095D01*
X152328476Y-105076095D02*
X152376095Y-104980857D01*
X152376095Y-104980857D02*
X152423714Y-104933238D01*
X152423714Y-104933238D02*
X152518952Y-104885619D01*
X152518952Y-104885619D02*
X152709428Y-104885619D01*
X152709428Y-104885619D02*
X152804666Y-104933238D01*
X152804666Y-104933238D02*
X152852285Y-104980857D01*
X152852285Y-104980857D02*
X152899904Y-105076095D01*
X152899904Y-105076095D02*
X152899904Y-105123714D01*
X152899904Y-105123714D02*
X152852285Y-105218952D01*
X152852285Y-105218952D02*
X152804666Y-105266571D01*
X152804666Y-105266571D02*
X152709428Y-105314190D01*
X152709428Y-105314190D02*
X152518952Y-105314190D01*
X152518952Y-105314190D02*
X152423714Y-105361809D01*
X152423714Y-105361809D02*
X152376095Y-105409428D01*
X152376095Y-105409428D02*
X152328476Y-105504666D01*
X152328476Y-105504666D02*
X152328476Y-105695142D01*
X152328476Y-105695142D02*
X152376095Y-105790380D01*
X152376095Y-105790380D02*
X152423714Y-105838000D01*
X152423714Y-105838000D02*
X152518952Y-105885619D01*
X152518952Y-105885619D02*
X152709428Y-105885619D01*
X152709428Y-105885619D02*
X152804666Y-105838000D01*
X152804666Y-105838000D02*
X152852285Y-105790380D01*
X152852285Y-105790380D02*
X152899904Y-105695142D01*
X152899904Y-105695142D02*
X152899904Y-105504666D01*
X152899904Y-105504666D02*
X152852285Y-105409428D01*
X152852285Y-105409428D02*
X152804666Y-105361809D01*
X152804666Y-105361809D02*
X152709428Y-105314190D01*
%TO.C,C19*%
X143978980Y-97556857D02*
X144026600Y-97604476D01*
X144026600Y-97604476D02*
X144074219Y-97747333D01*
X144074219Y-97747333D02*
X144074219Y-97842571D01*
X144074219Y-97842571D02*
X144026600Y-97985428D01*
X144026600Y-97985428D02*
X143931361Y-98080666D01*
X143931361Y-98080666D02*
X143836123Y-98128285D01*
X143836123Y-98128285D02*
X143645647Y-98175904D01*
X143645647Y-98175904D02*
X143502790Y-98175904D01*
X143502790Y-98175904D02*
X143312314Y-98128285D01*
X143312314Y-98128285D02*
X143217076Y-98080666D01*
X143217076Y-98080666D02*
X143121838Y-97985428D01*
X143121838Y-97985428D02*
X143074219Y-97842571D01*
X143074219Y-97842571D02*
X143074219Y-97747333D01*
X143074219Y-97747333D02*
X143121838Y-97604476D01*
X143121838Y-97604476D02*
X143169457Y-97556857D01*
X144074219Y-96604476D02*
X144074219Y-97175904D01*
X144074219Y-96890190D02*
X143074219Y-96890190D01*
X143074219Y-96890190D02*
X143217076Y-96985428D01*
X143217076Y-96985428D02*
X143312314Y-97080666D01*
X143312314Y-97080666D02*
X143359933Y-97175904D01*
X144074219Y-96128285D02*
X144074219Y-95937809D01*
X144074219Y-95937809D02*
X144026600Y-95842571D01*
X144026600Y-95842571D02*
X143978980Y-95794952D01*
X143978980Y-95794952D02*
X143836123Y-95699714D01*
X143836123Y-95699714D02*
X143645647Y-95652095D01*
X143645647Y-95652095D02*
X143264695Y-95652095D01*
X143264695Y-95652095D02*
X143169457Y-95699714D01*
X143169457Y-95699714D02*
X143121838Y-95747333D01*
X143121838Y-95747333D02*
X143074219Y-95842571D01*
X143074219Y-95842571D02*
X143074219Y-96033047D01*
X143074219Y-96033047D02*
X143121838Y-96128285D01*
X143121838Y-96128285D02*
X143169457Y-96175904D01*
X143169457Y-96175904D02*
X143264695Y-96223523D01*
X143264695Y-96223523D02*
X143502790Y-96223523D01*
X143502790Y-96223523D02*
X143598028Y-96175904D01*
X143598028Y-96175904D02*
X143645647Y-96128285D01*
X143645647Y-96128285D02*
X143693266Y-96033047D01*
X143693266Y-96033047D02*
X143693266Y-95842571D01*
X143693266Y-95842571D02*
X143645647Y-95747333D01*
X143645647Y-95747333D02*
X143598028Y-95699714D01*
X143598028Y-95699714D02*
X143502790Y-95652095D01*
%TO.C,C1*%
X148274833Y-67804380D02*
X148227214Y-67852000D01*
X148227214Y-67852000D02*
X148084357Y-67899619D01*
X148084357Y-67899619D02*
X147989119Y-67899619D01*
X147989119Y-67899619D02*
X147846262Y-67852000D01*
X147846262Y-67852000D02*
X147751024Y-67756761D01*
X147751024Y-67756761D02*
X147703405Y-67661523D01*
X147703405Y-67661523D02*
X147655786Y-67471047D01*
X147655786Y-67471047D02*
X147655786Y-67328190D01*
X147655786Y-67328190D02*
X147703405Y-67137714D01*
X147703405Y-67137714D02*
X147751024Y-67042476D01*
X147751024Y-67042476D02*
X147846262Y-66947238D01*
X147846262Y-66947238D02*
X147989119Y-66899619D01*
X147989119Y-66899619D02*
X148084357Y-66899619D01*
X148084357Y-66899619D02*
X148227214Y-66947238D01*
X148227214Y-66947238D02*
X148274833Y-66994857D01*
X149227214Y-67899619D02*
X148655786Y-67899619D01*
X148941500Y-67899619D02*
X148941500Y-66899619D01*
X148941500Y-66899619D02*
X148846262Y-67042476D01*
X148846262Y-67042476D02*
X148751024Y-67137714D01*
X148751024Y-67137714D02*
X148655786Y-67185333D01*
%TO.C,R4*%
X136098619Y-77509666D02*
X135622428Y-77842999D01*
X136098619Y-78081094D02*
X135098619Y-78081094D01*
X135098619Y-78081094D02*
X135098619Y-77700142D01*
X135098619Y-77700142D02*
X135146238Y-77604904D01*
X135146238Y-77604904D02*
X135193857Y-77557285D01*
X135193857Y-77557285D02*
X135289095Y-77509666D01*
X135289095Y-77509666D02*
X135431952Y-77509666D01*
X135431952Y-77509666D02*
X135527190Y-77557285D01*
X135527190Y-77557285D02*
X135574809Y-77604904D01*
X135574809Y-77604904D02*
X135622428Y-77700142D01*
X135622428Y-77700142D02*
X135622428Y-78081094D01*
X135431952Y-76652523D02*
X136098619Y-76652523D01*
X135051000Y-76890618D02*
X135765285Y-77128713D01*
X135765285Y-77128713D02*
X135765285Y-76509666D01*
%TO.C,U6*%
X146685095Y-101697619D02*
X146685095Y-102507142D01*
X146685095Y-102507142D02*
X146732714Y-102602380D01*
X146732714Y-102602380D02*
X146780333Y-102650000D01*
X146780333Y-102650000D02*
X146875571Y-102697619D01*
X146875571Y-102697619D02*
X147066047Y-102697619D01*
X147066047Y-102697619D02*
X147161285Y-102650000D01*
X147161285Y-102650000D02*
X147208904Y-102602380D01*
X147208904Y-102602380D02*
X147256523Y-102507142D01*
X147256523Y-102507142D02*
X147256523Y-101697619D01*
X148161285Y-101697619D02*
X147970809Y-101697619D01*
X147970809Y-101697619D02*
X147875571Y-101745238D01*
X147875571Y-101745238D02*
X147827952Y-101792857D01*
X147827952Y-101792857D02*
X147732714Y-101935714D01*
X147732714Y-101935714D02*
X147685095Y-102126190D01*
X147685095Y-102126190D02*
X147685095Y-102507142D01*
X147685095Y-102507142D02*
X147732714Y-102602380D01*
X147732714Y-102602380D02*
X147780333Y-102650000D01*
X147780333Y-102650000D02*
X147875571Y-102697619D01*
X147875571Y-102697619D02*
X148066047Y-102697619D01*
X148066047Y-102697619D02*
X148161285Y-102650000D01*
X148161285Y-102650000D02*
X148208904Y-102602380D01*
X148208904Y-102602380D02*
X148256523Y-102507142D01*
X148256523Y-102507142D02*
X148256523Y-102269047D01*
X148256523Y-102269047D02*
X148208904Y-102173809D01*
X148208904Y-102173809D02*
X148161285Y-102126190D01*
X148161285Y-102126190D02*
X148066047Y-102078571D01*
X148066047Y-102078571D02*
X147875571Y-102078571D01*
X147875571Y-102078571D02*
X147780333Y-102126190D01*
X147780333Y-102126190D02*
X147732714Y-102173809D01*
X147732714Y-102173809D02*
X147685095Y-102269047D01*
%TO.C,U1*%
X149584595Y-71852619D02*
X149584595Y-72662142D01*
X149584595Y-72662142D02*
X149632214Y-72757380D01*
X149632214Y-72757380D02*
X149679833Y-72805000D01*
X149679833Y-72805000D02*
X149775071Y-72852619D01*
X149775071Y-72852619D02*
X149965547Y-72852619D01*
X149965547Y-72852619D02*
X150060785Y-72805000D01*
X150060785Y-72805000D02*
X150108404Y-72757380D01*
X150108404Y-72757380D02*
X150156023Y-72662142D01*
X150156023Y-72662142D02*
X150156023Y-71852619D01*
X151156023Y-72852619D02*
X150584595Y-72852619D01*
X150870309Y-72852619D02*
X150870309Y-71852619D01*
X150870309Y-71852619D02*
X150775071Y-71995476D01*
X150775071Y-71995476D02*
X150679833Y-72090714D01*
X150679833Y-72090714D02*
X150584595Y-72138333D01*
%TO.C,U2*%
X141498095Y-86076619D02*
X141498095Y-86886142D01*
X141498095Y-86886142D02*
X141545714Y-86981380D01*
X141545714Y-86981380D02*
X141593333Y-87029000D01*
X141593333Y-87029000D02*
X141688571Y-87076619D01*
X141688571Y-87076619D02*
X141879047Y-87076619D01*
X141879047Y-87076619D02*
X141974285Y-87029000D01*
X141974285Y-87029000D02*
X142021904Y-86981380D01*
X142021904Y-86981380D02*
X142069523Y-86886142D01*
X142069523Y-86886142D02*
X142069523Y-86076619D01*
X142498095Y-86171857D02*
X142545714Y-86124238D01*
X142545714Y-86124238D02*
X142640952Y-86076619D01*
X142640952Y-86076619D02*
X142879047Y-86076619D01*
X142879047Y-86076619D02*
X142974285Y-86124238D01*
X142974285Y-86124238D02*
X143021904Y-86171857D01*
X143021904Y-86171857D02*
X143069523Y-86267095D01*
X143069523Y-86267095D02*
X143069523Y-86362333D01*
X143069523Y-86362333D02*
X143021904Y-86505190D01*
X143021904Y-86505190D02*
X142450476Y-87076619D01*
X142450476Y-87076619D02*
X143069523Y-87076619D01*
%TO.C,R10*%
X149580619Y-92844857D02*
X149104428Y-93178190D01*
X149580619Y-93416285D02*
X148580619Y-93416285D01*
X148580619Y-93416285D02*
X148580619Y-93035333D01*
X148580619Y-93035333D02*
X148628238Y-92940095D01*
X148628238Y-92940095D02*
X148675857Y-92892476D01*
X148675857Y-92892476D02*
X148771095Y-92844857D01*
X148771095Y-92844857D02*
X148913952Y-92844857D01*
X148913952Y-92844857D02*
X149009190Y-92892476D01*
X149009190Y-92892476D02*
X149056809Y-92940095D01*
X149056809Y-92940095D02*
X149104428Y-93035333D01*
X149104428Y-93035333D02*
X149104428Y-93416285D01*
X149580619Y-91892476D02*
X149580619Y-92463904D01*
X149580619Y-92178190D02*
X148580619Y-92178190D01*
X148580619Y-92178190D02*
X148723476Y-92273428D01*
X148723476Y-92273428D02*
X148818714Y-92368666D01*
X148818714Y-92368666D02*
X148866333Y-92463904D01*
X148580619Y-91273428D02*
X148580619Y-91178190D01*
X148580619Y-91178190D02*
X148628238Y-91082952D01*
X148628238Y-91082952D02*
X148675857Y-91035333D01*
X148675857Y-91035333D02*
X148771095Y-90987714D01*
X148771095Y-90987714D02*
X148961571Y-90940095D01*
X148961571Y-90940095D02*
X149199666Y-90940095D01*
X149199666Y-90940095D02*
X149390142Y-90987714D01*
X149390142Y-90987714D02*
X149485380Y-91035333D01*
X149485380Y-91035333D02*
X149533000Y-91082952D01*
X149533000Y-91082952D02*
X149580619Y-91178190D01*
X149580619Y-91178190D02*
X149580619Y-91273428D01*
X149580619Y-91273428D02*
X149533000Y-91368666D01*
X149533000Y-91368666D02*
X149485380Y-91416285D01*
X149485380Y-91416285D02*
X149390142Y-91463904D01*
X149390142Y-91463904D02*
X149199666Y-91511523D01*
X149199666Y-91511523D02*
X148961571Y-91511523D01*
X148961571Y-91511523D02*
X148771095Y-91463904D01*
X148771095Y-91463904D02*
X148675857Y-91416285D01*
X148675857Y-91416285D02*
X148628238Y-91368666D01*
X148628238Y-91368666D02*
X148580619Y-91273428D01*
%TO.C,R22*%
X147693142Y-108412619D02*
X147359809Y-107936428D01*
X147121714Y-108412619D02*
X147121714Y-107412619D01*
X147121714Y-107412619D02*
X147502666Y-107412619D01*
X147502666Y-107412619D02*
X147597904Y-107460238D01*
X147597904Y-107460238D02*
X147645523Y-107507857D01*
X147645523Y-107507857D02*
X147693142Y-107603095D01*
X147693142Y-107603095D02*
X147693142Y-107745952D01*
X147693142Y-107745952D02*
X147645523Y-107841190D01*
X147645523Y-107841190D02*
X147597904Y-107888809D01*
X147597904Y-107888809D02*
X147502666Y-107936428D01*
X147502666Y-107936428D02*
X147121714Y-107936428D01*
X148074095Y-107507857D02*
X148121714Y-107460238D01*
X148121714Y-107460238D02*
X148216952Y-107412619D01*
X148216952Y-107412619D02*
X148455047Y-107412619D01*
X148455047Y-107412619D02*
X148550285Y-107460238D01*
X148550285Y-107460238D02*
X148597904Y-107507857D01*
X148597904Y-107507857D02*
X148645523Y-107603095D01*
X148645523Y-107603095D02*
X148645523Y-107698333D01*
X148645523Y-107698333D02*
X148597904Y-107841190D01*
X148597904Y-107841190D02*
X148026476Y-108412619D01*
X148026476Y-108412619D02*
X148645523Y-108412619D01*
X149026476Y-107507857D02*
X149074095Y-107460238D01*
X149074095Y-107460238D02*
X149169333Y-107412619D01*
X149169333Y-107412619D02*
X149407428Y-107412619D01*
X149407428Y-107412619D02*
X149502666Y-107460238D01*
X149502666Y-107460238D02*
X149550285Y-107507857D01*
X149550285Y-107507857D02*
X149597904Y-107603095D01*
X149597904Y-107603095D02*
X149597904Y-107698333D01*
X149597904Y-107698333D02*
X149550285Y-107841190D01*
X149550285Y-107841190D02*
X148978857Y-108412619D01*
X148978857Y-108412619D02*
X149597904Y-108412619D01*
%TO.C,R5*%
X155767833Y-77678619D02*
X155434500Y-77202428D01*
X155196405Y-77678619D02*
X155196405Y-76678619D01*
X155196405Y-76678619D02*
X155577357Y-76678619D01*
X155577357Y-76678619D02*
X155672595Y-76726238D01*
X155672595Y-76726238D02*
X155720214Y-76773857D01*
X155720214Y-76773857D02*
X155767833Y-76869095D01*
X155767833Y-76869095D02*
X155767833Y-77011952D01*
X155767833Y-77011952D02*
X155720214Y-77107190D01*
X155720214Y-77107190D02*
X155672595Y-77154809D01*
X155672595Y-77154809D02*
X155577357Y-77202428D01*
X155577357Y-77202428D02*
X155196405Y-77202428D01*
X156672595Y-76678619D02*
X156196405Y-76678619D01*
X156196405Y-76678619D02*
X156148786Y-77154809D01*
X156148786Y-77154809D02*
X156196405Y-77107190D01*
X156196405Y-77107190D02*
X156291643Y-77059571D01*
X156291643Y-77059571D02*
X156529738Y-77059571D01*
X156529738Y-77059571D02*
X156624976Y-77107190D01*
X156624976Y-77107190D02*
X156672595Y-77154809D01*
X156672595Y-77154809D02*
X156720214Y-77250047D01*
X156720214Y-77250047D02*
X156720214Y-77488142D01*
X156720214Y-77488142D02*
X156672595Y-77583380D01*
X156672595Y-77583380D02*
X156624976Y-77631000D01*
X156624976Y-77631000D02*
X156529738Y-77678619D01*
X156529738Y-77678619D02*
X156291643Y-77678619D01*
X156291643Y-77678619D02*
X156196405Y-77631000D01*
X156196405Y-77631000D02*
X156148786Y-77583380D01*
%TO.C,R21*%
X147693142Y-110952619D02*
X147359809Y-110476428D01*
X147121714Y-110952619D02*
X147121714Y-109952619D01*
X147121714Y-109952619D02*
X147502666Y-109952619D01*
X147502666Y-109952619D02*
X147597904Y-110000238D01*
X147597904Y-110000238D02*
X147645523Y-110047857D01*
X147645523Y-110047857D02*
X147693142Y-110143095D01*
X147693142Y-110143095D02*
X147693142Y-110285952D01*
X147693142Y-110285952D02*
X147645523Y-110381190D01*
X147645523Y-110381190D02*
X147597904Y-110428809D01*
X147597904Y-110428809D02*
X147502666Y-110476428D01*
X147502666Y-110476428D02*
X147121714Y-110476428D01*
X148074095Y-110047857D02*
X148121714Y-110000238D01*
X148121714Y-110000238D02*
X148216952Y-109952619D01*
X148216952Y-109952619D02*
X148455047Y-109952619D01*
X148455047Y-109952619D02*
X148550285Y-110000238D01*
X148550285Y-110000238D02*
X148597904Y-110047857D01*
X148597904Y-110047857D02*
X148645523Y-110143095D01*
X148645523Y-110143095D02*
X148645523Y-110238333D01*
X148645523Y-110238333D02*
X148597904Y-110381190D01*
X148597904Y-110381190D02*
X148026476Y-110952619D01*
X148026476Y-110952619D02*
X148645523Y-110952619D01*
X149597904Y-110952619D02*
X149026476Y-110952619D01*
X149312190Y-110952619D02*
X149312190Y-109952619D01*
X149312190Y-109952619D02*
X149216952Y-110095476D01*
X149216952Y-110095476D02*
X149121714Y-110190714D01*
X149121714Y-110190714D02*
X149026476Y-110238333D01*
%TO.C,D1*%
X146512619Y-99176094D02*
X145512619Y-99176094D01*
X145512619Y-99176094D02*
X145512619Y-98937999D01*
X145512619Y-98937999D02*
X145560238Y-98795142D01*
X145560238Y-98795142D02*
X145655476Y-98699904D01*
X145655476Y-98699904D02*
X145750714Y-98652285D01*
X145750714Y-98652285D02*
X145941190Y-98604666D01*
X145941190Y-98604666D02*
X146084047Y-98604666D01*
X146084047Y-98604666D02*
X146274523Y-98652285D01*
X146274523Y-98652285D02*
X146369761Y-98699904D01*
X146369761Y-98699904D02*
X146465000Y-98795142D01*
X146465000Y-98795142D02*
X146512619Y-98937999D01*
X146512619Y-98937999D02*
X146512619Y-99176094D01*
X146512619Y-97652285D02*
X146512619Y-98223713D01*
X146512619Y-97937999D02*
X145512619Y-97937999D01*
X145512619Y-97937999D02*
X145655476Y-98033237D01*
X145655476Y-98033237D02*
X145750714Y-98128475D01*
X145750714Y-98128475D02*
X145798333Y-98223713D01*
D12*
%TO.C,J7*%
X130810000Y-81347000D02*
X133410000Y-81347000D01*
X128210000Y-84007000D02*
X128210000Y-82677000D01*
X130810000Y-84007000D02*
X130810000Y-81347000D01*
X130810000Y-84007000D02*
X133410000Y-84007000D01*
X133410000Y-84007000D02*
X133410000Y-81347000D01*
X129540000Y-84007000D02*
X128210000Y-84007000D01*
%TO.C,J6*%
X133003600Y-91719400D02*
X130343600Y-91719400D01*
X133003600Y-94319400D02*
X131673600Y-94319400D01*
X130343600Y-91719400D02*
X130343600Y-86579400D01*
X133003600Y-92989400D02*
X133003600Y-94319400D01*
X133003600Y-91719400D02*
X133003600Y-86579400D01*
X133003600Y-86579400D02*
X130343600Y-86579400D01*
%TO.C,R13*%
X138054436Y-71528000D02*
X138508564Y-71528000D01*
X138054436Y-72998000D02*
X138508564Y-72998000D01*
%TO.C,R12*%
X139324436Y-64035000D02*
X139778564Y-64035000D01*
X139324436Y-65505000D02*
X139778564Y-65505000D01*
%TO.C,C10*%
X147037248Y-78767000D02*
X147559752Y-78767000D01*
X147037248Y-80237000D02*
X147559752Y-80237000D01*
%TO.C,C9*%
X138020248Y-78894000D02*
X138542752Y-78894000D01*
X138020248Y-80364000D02*
X138542752Y-80364000D01*
%TO.C,C3*%
X152752248Y-74068000D02*
X153274752Y-74068000D01*
X152752248Y-75538000D02*
X153274752Y-75538000D01*
%TO.C,R7*%
X149378936Y-83212000D02*
X149833064Y-83212000D01*
X149378936Y-84682000D02*
X149833064Y-84682000D01*
%TO.C,J2*%
X151425600Y-65543200D02*
X152755600Y-65543200D01*
X151425600Y-66873200D02*
X151425600Y-65543200D01*
X151425600Y-68143200D02*
X151425600Y-70743200D01*
X151425600Y-68143200D02*
X154085600Y-68143200D01*
X151425600Y-70743200D02*
X154085600Y-70743200D01*
X154085600Y-68143200D02*
X154085600Y-70743200D01*
%TO.C,C7*%
X135883000Y-88638748D02*
X135883000Y-89161252D01*
X134413000Y-88638748D02*
X134413000Y-89161252D01*
%TO.C,C2*%
X129164050Y-67281248D02*
X129164050Y-67803752D01*
X127694050Y-67281248D02*
X127694050Y-67803752D01*
%TO.C,C5*%
X140094498Y-84682000D02*
X140617002Y-84682000D01*
X140094498Y-83212000D02*
X140617002Y-83212000D01*
%TO.C,R3*%
X138054436Y-74322000D02*
X138508564Y-74322000D01*
X138054436Y-75792000D02*
X138508564Y-75792000D01*
%TO.C,RV1*%
X141135500Y-66742000D02*
X141135500Y-68072000D01*
X139805500Y-66742000D02*
X141135500Y-66742000D01*
X138535500Y-66742000D02*
X133395500Y-66742000D01*
X138535500Y-66742000D02*
X138535500Y-69402000D01*
X133395500Y-66742000D02*
X133395500Y-69402000D01*
X138535500Y-69402000D02*
X133395500Y-69402000D01*
%TO.C,C16*%
X137012000Y-108563064D02*
X137012000Y-107108936D01*
X138832000Y-108563064D02*
X138832000Y-107108936D01*
%TO.C,C17*%
X139806000Y-108563064D02*
X139806000Y-107108936D01*
X141626000Y-108563064D02*
X141626000Y-107108936D01*
%TO.C,J5*%
X153610000Y-86041000D02*
X154940000Y-86041000D01*
X153610000Y-87371000D02*
X153610000Y-86041000D01*
X153610000Y-88641000D02*
X153610000Y-91241000D01*
X153610000Y-88641000D02*
X156270000Y-88641000D01*
X153610000Y-91241000D02*
X156270000Y-91241000D01*
X156270000Y-88641000D02*
X156270000Y-91241000D01*
%TO.C,R2*%
X131653250Y-67820364D02*
X131653250Y-67366236D01*
X130183250Y-67820364D02*
X130183250Y-67366236D01*
%TO.C,C29*%
X138832000Y-100250936D02*
X138832000Y-101705064D01*
X137012000Y-100250936D02*
X137012000Y-101705064D01*
%TO.C,R23*%
X152373000Y-98210936D02*
X152373000Y-98665064D01*
X150903000Y-98210936D02*
X150903000Y-98665064D01*
%TO.C,R9*%
X138985000Y-89127064D02*
X138985000Y-88672936D01*
X140455000Y-89127064D02*
X140455000Y-88672936D01*
%TO.C,R1*%
X145420436Y-69242000D02*
X145874564Y-69242000D01*
X145420436Y-70712000D02*
X145874564Y-70712000D01*
%TO.C,C4*%
X142231248Y-93245000D02*
X142753752Y-93245000D01*
X142231248Y-94715000D02*
X142753752Y-94715000D01*
%TO.C,J1*%
X128210000Y-73466000D02*
X128210000Y-72136000D01*
X129540000Y-73466000D02*
X128210000Y-73466000D01*
X130810000Y-73466000D02*
X133410000Y-73466000D01*
X130810000Y-73466000D02*
X130810000Y-70806000D01*
X133410000Y-73466000D02*
X133410000Y-70806000D01*
X130810000Y-70806000D02*
X133410000Y-70806000D01*
%TO.C,R6*%
X153240564Y-80237000D02*
X152786436Y-80237000D01*
X153240564Y-78767000D02*
X152786436Y-78767000D01*
%TO.C,C6*%
X150669000Y-89161252D02*
X150669000Y-88638748D01*
X152139000Y-89161252D02*
X152139000Y-88638748D01*
%TO.C,C20*%
X141626000Y-100250936D02*
X141626000Y-101705064D01*
X139806000Y-100250936D02*
X139806000Y-101705064D01*
%TO.C,R11*%
X138169000Y-88672936D02*
X138169000Y-89127064D01*
X136699000Y-88672936D02*
X136699000Y-89127064D01*
%TO.C,C30*%
X142600000Y-108563064D02*
X142600000Y-107108936D01*
X144420000Y-108563064D02*
X144420000Y-107108936D01*
%TO.C,C8*%
X145189002Y-84682000D02*
X144666498Y-84682000D01*
X145189002Y-83212000D02*
X144666498Y-83212000D01*
%TO.C,J3*%
X129221000Y-110778600D02*
X129221000Y-109448600D01*
X130551000Y-110778600D02*
X129221000Y-110778600D01*
X131821000Y-110778600D02*
X134421000Y-110778600D01*
X131821000Y-110778600D02*
X131821000Y-108118600D01*
X134421000Y-110778600D02*
X134421000Y-108118600D01*
X131821000Y-108118600D02*
X134421000Y-108118600D01*
%TO.C,J4*%
X130805000Y-76317800D02*
X133405000Y-76317800D01*
X133405000Y-78977800D02*
X133405000Y-76317800D01*
X130805000Y-78977800D02*
X130805000Y-76317800D01*
X130805000Y-78977800D02*
X133405000Y-78977800D01*
X129535000Y-78977800D02*
X128205000Y-78977800D01*
X128205000Y-78977800D02*
X128205000Y-77647800D01*
%TO.C,R8*%
X147567000Y-88672936D02*
X147567000Y-89127064D01*
X146097000Y-88672936D02*
X146097000Y-89127064D01*
%TO.C,L1*%
X127472000Y-105978000D02*
X127472000Y-95978000D01*
X135672000Y-105978000D02*
X135672000Y-95978000D01*
%TO.C,C18*%
X151376748Y-102783000D02*
X151899252Y-102783000D01*
X151376748Y-104253000D02*
X151899252Y-104253000D01*
%TO.C,C19*%
X144420000Y-100250936D02*
X144420000Y-101705064D01*
X142600000Y-100250936D02*
X142600000Y-101705064D01*
%TO.C,C1*%
X145386248Y-66702000D02*
X145908752Y-66702000D01*
X145386248Y-68172000D02*
X145908752Y-68172000D01*
%TO.C,R4*%
X138508564Y-78078000D02*
X138054436Y-78078000D01*
X138508564Y-76608000D02*
X138054436Y-76608000D01*
%TO.C,U6*%
X147238300Y-102908000D02*
X145438300Y-102908000D01*
X147238300Y-102908000D02*
X148038300Y-102908000D01*
X147238300Y-106028000D02*
X146438300Y-106028000D01*
X147238300Y-106028000D02*
X148038300Y-106028000D01*
%TO.C,U1*%
X145647500Y-71735000D02*
X142197500Y-71735000D01*
X145647500Y-71735000D02*
X147597500Y-71735000D01*
X145647500Y-76855000D02*
X143697500Y-76855000D01*
X145647500Y-76855000D02*
X147597500Y-76855000D01*
%TO.C,U2*%
X145260000Y-87200000D02*
X145260000Y-88400000D01*
X143760000Y-87200000D02*
X145260000Y-87200000D01*
X144880000Y-87650000D02*
X144880000Y-90020000D01*
X141640000Y-89400000D02*
X141640000Y-88400000D01*
%TO.C,R10*%
X148383000Y-89127064D02*
X148383000Y-88672936D01*
X149853000Y-89127064D02*
X149853000Y-88672936D01*
%TO.C,R22*%
X151664936Y-107215000D02*
X152119064Y-107215000D01*
X151664936Y-108685000D02*
X152119064Y-108685000D01*
%TO.C,R5*%
X153240564Y-77951000D02*
X152786436Y-77951000D01*
X153240564Y-76481000D02*
X152786436Y-76481000D01*
%TO.C,R21*%
X152119064Y-109755000D02*
X151664936Y-109755000D01*
X152119064Y-111225000D02*
X151664936Y-111225000D01*
%TO.C,D1*%
X149042000Y-96578000D02*
X147122000Y-96578000D01*
X147122000Y-96578000D02*
X147122000Y-99438000D01*
X149042000Y-99438000D02*
X149042000Y-96578000D01*
%TD*%
M02*
