M48
; DRILL file {KiCad 7.0.1-3b83917a11~172~ubuntu22.04.1} date Wed 19 Apr 2023 02:42:27 BST
; FORMAT={-:-/ absolute / inch / decimal}
; #@! TF.CreationDate,2023-04-19T02:42:27+01:00
; #@! TF.GenerationSoftware,Kicad,Pcbnew,7.0.1-3b83917a11~172~ubuntu22.04.1
; #@! TF.FileFunction,Plated,1,2,PTH
FMAT,2
INCH
; #@! TA.AperFunction,Plated,PTH,ComponentDrill
T1C0.0118
; #@! TA.AperFunction,Plated,PTH,ViaDrill
T2C0.0157
; #@! TA.AperFunction,Plated,PTH,ComponentDrill
T3C0.0394
%
G90
G05
T1
X5.6008Y-3.5
X5.6402Y-3.5
X5.6795Y-3.5
T2
X5.03Y-2.95
X5.03Y-3.19
X5.03Y-3.4
X5.03Y-3.56
X5.03Y-4.415
X5.09Y-3.975
X5.11Y-2.53
X5.14Y-3.17
X5.15Y-2.97
X5.18Y-3.74
X5.18Y-3.9755
X5.2Y-3.38
X5.22Y-2.75
X5.23Y-2.54
X5.25Y-2.97
X5.27Y-3.539
X5.27Y-3.975
X5.29Y-2.82
X5.29Y-3.05
X5.31Y-3.735
X5.33Y-4.235
X5.355Y-4.4
X5.36Y-2.54
X5.3617Y-4.113
X5.37Y-3.98
X5.38Y-3.225
X5.38Y-3.3
X5.38Y-3.375
X5.485Y-3.98
X5.485Y-4.24
X5.49Y-3.715
X5.5342Y-3.045
X5.5449Y-3.6249
X5.555Y-2.78
X5.58Y-3.2
X5.595Y-3.98
X5.595Y-4.24
X5.6Y-2.6
X5.615Y-2.78
X5.615Y-3.305
X5.625Y-3.365
X5.655Y-3.2
X5.68Y-3.08
X5.6801Y-3.3935
X5.688Y-4.113
X5.71Y-2.93
X5.71Y-3.02
X5.71Y-3.625
X5.73Y-3.2
X5.73Y-4.35
X5.75Y-2.84
X5.75Y-3.96
X5.758Y-3.081
X5.77Y-2.56
X5.78Y-3.393
X5.78Y-4.425
X5.805Y-3.2
X5.805Y-3.7
X5.84Y-4.3
X5.86Y-2.56
X5.86Y-4.2
X5.88Y-3.2
X5.88Y-4.425
X5.9Y-3.96
X5.905Y-3.725
X5.91Y-2.62
X5.91Y-2.7
X5.93Y-3.04
X5.96Y-3.39
X5.98Y-4.425
X6.005Y-3.7
X6.0108Y-4.0178
X6.05Y-3.96
X6.05Y-4.18
X6.07Y-3.21
X6.08Y-3.74
X6.08Y-4.425
X6.11Y-3.28
X6.13Y-2.54
X6.13Y-2.835
X6.14Y-3.19
X6.155Y-3.75
X6.155Y-3.875
X6.155Y-4.0
X6.155Y-4.125
X6.155Y-4.25
X6.155Y-4.375
T3
X5.0998Y-3.057
X5.1Y-2.84
X5.1Y-3.255
X5.1398Y-4.309
X5.184Y-3.461
X5.184Y-3.561
X5.184Y-3.661
X5.1998Y-3.057
X5.2Y-2.84
X5.2Y-3.255
X5.2398Y-4.309
X5.3042Y-2.68
X5.4042Y-2.68
X5.5042Y-2.68
X6.014Y-2.6328
X6.014Y-2.7328
X6.1Y-3.4398
X6.1Y-3.5398
T0
M30
