%TF.GenerationSoftware,KiCad,Pcbnew,7.0.1-3b83917a11~172~ubuntu22.04.1*%
%TF.CreationDate,2023-04-19T02:42:24+01:00*%
%TF.ProjectId,mxr_microamp,6d78725f-6d69-4637-926f-616d702e6b69,rev?*%
%TF.SameCoordinates,Original*%
%TF.FileFunction,Paste,Top*%
%TF.FilePolarity,Positive*%
%FSLAX46Y46*%
G04 Gerber Fmt 4.6, Leading zero omitted, Abs format (unit mm)*
G04 Created by KiCad (PCBNEW 7.0.1-3b83917a11~172~ubuntu22.04.1) date 2023-04-19 02:42:24*
%MOMM*%
%LPD*%
G01*
G04 APERTURE LIST*
G04 Aperture macros list*
%AMRoundRect*
0 Rectangle with rounded corners*
0 $1 Rounding radius*
0 $2 $3 $4 $5 $6 $7 $8 $9 X,Y pos of 4 corners*
0 Add a 4 corners polygon primitive as box body*
4,1,4,$2,$3,$4,$5,$6,$7,$8,$9,$2,$3,0*
0 Add four circle primitives for the rounded corners*
1,1,$1+$1,$2,$3*
1,1,$1+$1,$4,$5*
1,1,$1+$1,$6,$7*
1,1,$1+$1,$8,$9*
0 Add four rect primitives between the rounded corners*
20,1,$1+$1,$2,$3,$4,$5,0*
20,1,$1+$1,$4,$5,$6,$7,0*
20,1,$1+$1,$6,$7,$8,$9,0*
20,1,$1+$1,$8,$9,$2,$3,0*%
G04 Aperture macros list end*
%ADD10RoundRect,0.250000X-0.350000X-0.450000X0.350000X-0.450000X0.350000X0.450000X-0.350000X0.450000X0*%
%ADD11RoundRect,0.250000X-0.337500X-0.475000X0.337500X-0.475000X0.337500X0.475000X-0.337500X0.475000X0*%
%ADD12RoundRect,0.250000X-0.475000X0.337500X-0.475000X-0.337500X0.475000X-0.337500X0.475000X0.337500X0*%
%ADD13RoundRect,0.250000X0.625000X-0.400000X0.625000X0.400000X-0.625000X0.400000X-0.625000X-0.400000X0*%
%ADD14RoundRect,0.250000X0.450000X-0.350000X0.450000X0.350000X-0.450000X0.350000X-0.450000X-0.350000X0*%
%ADD15RoundRect,0.250000X-0.625000X0.400000X-0.625000X-0.400000X0.625000X-0.400000X0.625000X0.400000X0*%
%ADD16RoundRect,0.250000X-0.450000X0.350000X-0.450000X-0.350000X0.450000X-0.350000X0.450000X0.350000X0*%
%ADD17RoundRect,0.250000X0.350000X0.450000X-0.350000X0.450000X-0.350000X-0.450000X0.350000X-0.450000X0*%
%ADD18RoundRect,0.250000X0.475000X-0.337500X0.475000X0.337500X-0.475000X0.337500X-0.475000X-0.337500X0*%
%ADD19RoundRect,0.250000X0.337500X0.475000X-0.337500X0.475000X-0.337500X-0.475000X0.337500X-0.475000X0*%
%ADD20R,7.700000X3.100000*%
%ADD21RoundRect,0.150000X-0.512500X-0.150000X0.512500X-0.150000X0.512500X0.150000X-0.512500X0.150000X0*%
%ADD22RoundRect,0.150000X-0.825000X-0.150000X0.825000X-0.150000X0.825000X0.150000X-0.825000X0.150000X0*%
%ADD23R,0.800000X0.950000*%
%ADD24R,0.250000X0.500000*%
%ADD25RoundRect,0.250000X-0.450000X0.325000X-0.450000X-0.325000X0.450000X-0.325000X0.450000X0.325000X0*%
G04 APERTURE END LIST*
D10*
%TO.C,R13*%
X137281500Y-72263000D03*
X139281500Y-72263000D03*
%TD*%
%TO.C,R12*%
X138551500Y-64770000D03*
X140551500Y-64770000D03*
%TD*%
D11*
%TO.C,C10*%
X146261000Y-79502000D03*
X148336000Y-79502000D03*
%TD*%
%TO.C,C9*%
X137244000Y-79629000D03*
X139319000Y-79629000D03*
%TD*%
%TO.C,C3*%
X151976000Y-74803000D03*
X154051000Y-74803000D03*
%TD*%
D10*
%TO.C,R7*%
X148606000Y-83947000D03*
X150606000Y-83947000D03*
%TD*%
D12*
%TO.C,C7*%
X135148000Y-87862500D03*
X135148000Y-89937500D03*
%TD*%
%TO.C,C2*%
X128429050Y-66505000D03*
X128429050Y-68580000D03*
%TD*%
D11*
%TO.C,C5*%
X141393250Y-83947000D03*
X139318250Y-83947000D03*
%TD*%
D10*
%TO.C,R3*%
X137281500Y-75057000D03*
X139281500Y-75057000D03*
%TD*%
D13*
%TO.C,C16*%
X137922000Y-109386000D03*
X137922000Y-106286000D03*
%TD*%
%TO.C,C17*%
X140716000Y-109386000D03*
X140716000Y-106286000D03*
%TD*%
D14*
%TO.C,R2*%
X130918250Y-66593300D03*
X130918250Y-68593300D03*
%TD*%
D15*
%TO.C,C29*%
X137922000Y-99428000D03*
X137922000Y-102528000D03*
%TD*%
D16*
%TO.C,R23*%
X151638000Y-97438000D03*
X151638000Y-99438000D03*
%TD*%
D14*
%TO.C,R9*%
X139720000Y-89900000D03*
X139720000Y-87900000D03*
%TD*%
D10*
%TO.C,R1*%
X144647500Y-69977000D03*
X146647500Y-69977000D03*
%TD*%
D11*
%TO.C,C4*%
X141455000Y-93980000D03*
X143530000Y-93980000D03*
%TD*%
D17*
%TO.C,R6*%
X154013500Y-79502000D03*
X152013500Y-79502000D03*
%TD*%
D18*
%TO.C,C6*%
X151404000Y-89937500D03*
X151404000Y-87862500D03*
%TD*%
D15*
%TO.C,C20*%
X140716000Y-99428000D03*
X140716000Y-102528000D03*
%TD*%
D16*
%TO.C,R11*%
X137434000Y-87900000D03*
X137434000Y-89900000D03*
%TD*%
D13*
%TO.C,C30*%
X143510000Y-109386000D03*
X143510000Y-106286000D03*
%TD*%
D19*
%TO.C,C8*%
X145965250Y-83947000D03*
X143890250Y-83947000D03*
%TD*%
D16*
%TO.C,R8*%
X146832000Y-87900000D03*
X146832000Y-89900000D03*
%TD*%
D20*
%TO.C,L1*%
X131572000Y-104428000D03*
X131572000Y-97528000D03*
%TD*%
D11*
%TO.C,C18*%
X150600500Y-103518000D03*
X152675500Y-103518000D03*
%TD*%
D15*
%TO.C,C19*%
X143510000Y-99428000D03*
X143510000Y-102528000D03*
%TD*%
D11*
%TO.C,C1*%
X144610000Y-67437000D03*
X146685000Y-67437000D03*
%TD*%
D17*
%TO.C,R4*%
X139281500Y-77343000D03*
X137281500Y-77343000D03*
%TD*%
D21*
%TO.C,U6*%
X146100800Y-103518000D03*
X146100800Y-104468000D03*
X146100800Y-105418000D03*
X148375800Y-105418000D03*
X148375800Y-104468000D03*
X148375800Y-103518000D03*
%TD*%
D22*
%TO.C,U1*%
X143172500Y-72390000D03*
X143172500Y-73660000D03*
X143172500Y-74930000D03*
X143172500Y-76200000D03*
X148122500Y-76200000D03*
X148122500Y-74930000D03*
X148122500Y-73660000D03*
X148122500Y-72390000D03*
%TD*%
D23*
%TO.C,U2*%
X143760000Y-88900000D03*
X142760000Y-88900000D03*
D24*
X144510000Y-87950000D03*
X144010000Y-87950000D03*
X143510000Y-87950000D03*
X143010000Y-87950000D03*
X142510000Y-87950000D03*
X142010000Y-87950000D03*
X142010000Y-89850000D03*
X142510000Y-89850000D03*
X143010000Y-89850000D03*
X143510000Y-89850000D03*
X144010000Y-89850000D03*
X144510000Y-89850000D03*
%TD*%
D14*
%TO.C,R10*%
X149118000Y-89900000D03*
X149118000Y-87900000D03*
%TD*%
D10*
%TO.C,R22*%
X150892000Y-107950000D03*
X152892000Y-107950000D03*
%TD*%
D17*
%TO.C,R5*%
X154013500Y-77216000D03*
X152013500Y-77216000D03*
%TD*%
%TO.C,R21*%
X150892000Y-110490000D03*
X152892000Y-110490000D03*
%TD*%
D25*
%TO.C,D1*%
X148082000Y-97413000D03*
X148082000Y-99463000D03*
%TD*%
M02*
